<svg xmlns="http://www.w3.org/2000/svg" width="1440" height="560" preserveAspectRatio="none"><g mask="url(&quot;#SvgjsMask1487&quot;)" fill="none"><path fill="rgba(34, 34, 34, 1)" d="M0 0h1440v560H0z"/><path d="m535.783 51.153 23.256 146.837 146.837-23.257-23.257-146.836z" fill="rgba(191, 191, 191, 0.08)" class="triangle-float2"/><path d="m102.479 394.645 12.926 147.744 147.744-12.926-12.926-147.744z" fill="rgba(191, 191, 191, 0.08)" class="triangle-float1"/><path d="m1378.577 483.101 95.493 11.725 11.725-95.492-95.493-11.725z" fill="rgba(191, 191, 191, 0.08)" class="triangle-float3"/><path d="M866.607 24.247 837.37 174.651l150.404 29.236 29.236-150.404z" fill="rgba(191, 191, 191, 0.08)" class="triangle-float1"/><path d="m525.79 91.252-35.14 82.782 82.782 35.14 35.139-82.783zM782.01 168.446l-88.153-23.62-23.62 88.151 88.152 23.62z" fill="rgba(191, 191, 191, 0.08)" class="triangle-float2"/><path d="m971.263 362.477 75.59-104.041-104.041-75.591-75.591 104.042z" fill="rgba(191, 191, 191, 0.08)" class="triangle-float3"/><path d="m301.115 331.798 119.44-23.217-23.217-119.44-119.44 23.217z" fill="rgba(191, 191, 191, 0.08)" class="triangle-float1"/><path d="m1119.73 463.184-12.898 122.723 122.723 12.899 12.899-122.724z" fill="rgba(191, 191, 191, 0.08)" class="triangle-float2"/><path d="M182.223 210.415 199.6 320.126 309.31 302.75l-17.376-109.712z" fill="rgba(191, 191, 191, 0.08)" class="triangle-float3"/><path d="m560.36 391.508-120.77 84.566 84.564 120.772 120.772-84.566zM609.656 109.867l149.316 40.01L798.98.56 649.665-39.449z" fill="rgba(191, 191, 191, 0.08)" class="triangle-float2"/><path d="m531.73 553.279 48.398-148.953-148.953-48.398-48.398 148.953z" fill="rgba(191, 191, 191, 0.08)" class="triangle-float1"/></g><defs><style>@keyframes float1{0%,to{transform:translate(0,0)}50%{transform:translate(-10px,0)}}@keyframes float2{0%,to{transform:translate(0,0)}50%{transform:translate(-5px,-5px)}}@keyframes float3{0%,to{transform:translate(0,0)}50%{transform:translate(0,-10px)}}.triangle-float1{animation:float1 5s infinite}.triangle-float2{animation:float2 4s infinite}.triangle-float3{animation:float3 6s infinite}</style><mask id="SvgjsMask1487"><path fill="#fff" d="M0 0h1440v560H0z"/></mask></defs></svg>