<?xml version="1.0" encoding="UTF-8" standalone="no"?>
<svg
   width="16.767002"
   height="21.049917"
   viewBox="0 0 16.767002 21.049917"
   version="1.1"
   id="svg3653"
   sodipodi:docname="broom.svg"
   inkscape:version="1.2.1 (9c6d41e410, 2022-07-14)"
   xmlns:inkscape="http://www.inkscape.org/namespaces/inkscape"
   xmlns:sodipodi="http://sodipodi.sourceforge.net/DTD/sodipodi-0.dtd"
   xmlns="http://www.w3.org/2000/svg"
   xmlns:svg="http://www.w3.org/2000/svg">
  <defs
     id="defs3657" />
  <sodipodi:namedview
     id="namedview3655"
     pagecolor="#ffffff"
     bordercolor="#111111"
     borderopacity="1"
     inkscape:showpageshadow="0"
     inkscape:pageopacity="0"
     inkscape:pagecheckerboard="1"
     inkscape:deskcolor="#d1d1d1"
     showgrid="false"
     inkscape:zoom="8.8830289"
     inkscape:cx="10.638263"
     inkscape:cy="10.638263"
     inkscape:window-width="1920"
     inkscape:window-height="991"
     inkscape:window-x="-9"
     inkscape:window-y="-9"
     inkscape:window-maximized="1"
     inkscape:current-layer="svg3653" />
  <path
     fill="#fff"
     d="m 1.1688605,4.27e-5 2.3952205,6.138818 c 0.077366,0.181977 0.1845282,0.265629 0.3300089,0.317889 0.1458007,0.05239 0.33534,0.05467 0.5038302,0.0077 0.16849,-0.04693 0.3057243,-0.14334 0.3643177,-0.223939 0.058685,-0.08065 0.074449,-0.116822 0.023008,-0.2387477 L 4.7831358,5.996663 2.4407677,0 Z M 5.45939,5.4740585 5.545047,5.6932134 5.540967,5.6830584 C 5.6934172,6.0446883 5.6242533,6.4495107 5.4256008,6.7227947 5.2269483,6.9959877 4.9347557,7.1663007 4.6180962,7.2545097 4.3014376,7.3427637 3.9504693,7.3485957 3.6166325,7.2285427 3.2827782,7.1085307 2.9716775,6.8436767 2.8082444,6.4574887 l -0.00226,-0.0054 -0.080054,-0.205032 C 1.299368,7.1493727 0.7908905,8.1618627 1.1145206,9.3858537 1.1710176,9.5991317 1.2704363,9.9491887 1.3862554,10.394152 4.7747394,10.153865 7.7625007,9.3064927 10.490009,8.0431357 10.020834,7.4113387 9.4648347,6.8662757 8.7480457,6.4698817 7.8137867,5.9532025 6.5769011,5.5514776 5.4594351,5.4740214 Z m 5.492878,3.2586292 C 8.1503117,10.045344 5.0668235,10.936911 1.5857573,11.201994 c 0.092492,0.395619 0.185895,0.832882 0.2710969,1.298303 C 5.9388897,12.040845 9.2855017,11.305648 11.778316,10.27835 11.516651,9.7443577 11.250111,9.2217567 10.952268,8.7326877 Z m 1.186448,2.2854153 C 9.5374157,12.101216 6.1249211,12.844567 1.9905798,13.310899 2.4010068,16.102878 2.351663,19.535056 0,21.049918 c 0.741302,0 1.4530793,-0.0068 2.138066,-0.02051 0.812835,-1.164304 1.4247393,-3.01724 1.461645,-3.925027 0.3768018,0.765131 0.1502191,2.702767 -0.244215,3.892587 0.1246131,-0.0042 0.2476318,-0.0088 0.3702868,-0.01354 0.5387303,-0.564838 0.534174,-1.304546 0.6706793,-2.154378 0.1514497,0.679793 0.3189375,1.502059 0.4330719,2.102983 0.5136256,-0.02807 1.0093005,-0.06106 1.4856109,-0.09946 0.7463138,-0.927562 0.9864278,-2.260082 0.8488288,-3.894683 0.192548,1.32587 0.415348,2.831163 0.540963,3.761185 0.440226,-0.04935 0.862271,-0.104338 1.266958,-0.164663 0.229635,-0.855983 -0.186807,-2.207229 -0.09441,-3.168416 0.506791,1.964336 1.013629,2.52644 1.5204213,2.917959 0.246948,-0.05081 0.485467,-0.104475 0.716835,-0.160653 -0.214145,-0.635597 0.07167,-1.02502 0.05377,-1.821862 0.257291,0.865231 0.666351,1.228273 1.113,1.495179 0.296429,-0.09568 0.576822,-0.197559 0.842543,-0.305133 -0.480138,-0.299345 -0.460775,-1.201665 -0.564065,-1.955816 0.27128,0.988844 0.656692,1.477046 1.097282,1.722992 1.326962,-0.628763 2.218438,-1.436767 2.751884,-2.444747 -0.413617,-0.174049 -0.850834,-0.592404 -1.278848,-0.915442 0.602062,0.340671 1.079102,0.483601 1.474858,0.497998 0.06028,-0.146073 0.114544,-0.2957 0.161838,-0.44961 -2.566354,-0.889745 -3.64819,-2.91682 -4.628239,-4.92886 z"
     id="path3651"
     style="stroke-width:0.0455625" />
</svg>
