<?xml version="1.0" encoding="UTF-8" standalone="no"?>
<!-- Generator: Adobe Illustrator 19.0.0, SVG Export Plug-In . SVG Version: 6.00 Build 0)  -->

<svg
   version="1.1"
   id="Layer_1"
   x="0px"
   y="0px"
   viewBox="0 0 16.000002 16.000002"
   xml:space="preserve"
   fill="#ffffff"
   sodipodi:docname="clock.svg"
   width="16.000002"
   height="16.000002"
   inkscape:version="1.2.1 (9c6d41e410, 2022-07-14)"
   xmlns:inkscape="http://www.inkscape.org/namespaces/inkscape"
   xmlns:sodipodi="http://sodipodi.sourceforge.net/DTD/sodipodi-0.dtd"
   xmlns="http://www.w3.org/2000/svg"
   xmlns:svg="http://www.w3.org/2000/svg"><defs
   id="defs1738" /><sodipodi:namedview
   id="namedview1736"
   pagecolor="#ffffff"
   bordercolor="#111111"
   borderopacity="1"
   inkscape:showpageshadow="0"
   inkscape:pageopacity="0"
   inkscape:pagecheckerboard="1"
   inkscape:deskcolor="#d1d1d1"
   showgrid="false"
   inkscape:zoom="13.153374"
   inkscape:cx="20.86917"
   inkscape:cy="23.986241"
   inkscape:window-width="1920"
   inkscape:window-height="991"
   inkscape:window-x="-9"
   inkscape:window-y="-9"
   inkscape:window-maximized="1"
   inkscape:current-layer="Layer_1" />
<g
   id="g1703"
   transform="scale(0.03271984)">
	<g
   id="g1701">
		<path
   d="M 244.5,0 C 109.3,0 0,109.3 0,244.5 0,379.7 109.3,489 244.5,489 379.7,489 489,379.8 489,244.5 489,109.2 379.8,0 244.5,0 Z m 20.8,447.4 V 437 c 0,-11.4 -9.4,-20.8 -20.8,-20.8 -11.4,0 -20.8,9.4 -20.8,20.8 v 10.4 C 127.9,437.6 51.4,361.1 41.7,265.4 H 51 c 11.4,0 20.8,-9.4 20.8,-20.8 0,-11.4 -9.4,-20.8 -20.8,-20.8 H 41.7 C 51.5,128 128,51.5 223.7,41.8 V 51 c 0,11.4 9.4,20.8 20.8,20.8 11.4,0 20.8,-9.4 20.8,-20.8 v -9.3 c 95.8,9.8 172.3,86.3 182,182 H 437 c -11.4,0 -20.8,9.4 -20.8,20.8 0,11.4 9.4,20.8 20.8,20.8 h 10.4 c -9.8,95.8 -86.3,172.3 -182.1,182.1 z"
   id="path1697" />
		<path
   d="m 244.5,124.9 c -11.4,0 -20.8,9.4 -20.8,20.8 v 91.5 L 129,353.8 c -7.3,9.4 -5.2,21.8 3.1,29.1 11.6,8.5 23.9,2.1 28.1,-3.1 L 261.2,257 c 2.1,-3.1 4.2,-7.3 4.2,-12.5 v -98.8 c -0.1,-11.5 -9.4,-20.8 -20.9,-20.8 z"
   id="path1699" />
	</g>
</g>
<g
   id="g1705"
   transform="translate(-223.8209,-223.8209)">
</g>
<g
   id="g1707"
   transform="translate(-223.8209,-223.8209)">
</g>
<g
   id="g1709"
   transform="translate(-223.8209,-223.8209)">
</g>
<g
   id="g1711"
   transform="translate(-223.8209,-223.8209)">
</g>
<g
   id="g1713"
   transform="translate(-223.8209,-223.8209)">
</g>
<g
   id="g1715"
   transform="translate(-223.8209,-223.8209)">
</g>
<g
   id="g1717"
   transform="translate(-223.8209,-223.8209)">
</g>
<g
   id="g1719"
   transform="translate(-223.8209,-223.8209)">
</g>
<g
   id="g1721"
   transform="translate(-223.8209,-223.8209)">
</g>
<g
   id="g1723"
   transform="translate(-223.8209,-223.8209)">
</g>
<g
   id="g1725"
   transform="translate(-223.8209,-223.8209)">
</g>
<g
   id="g1727"
   transform="translate(-223.8209,-223.8209)">
</g>
<g
   id="g1729"
   transform="translate(-223.8209,-223.8209)">
</g>
<g
   id="g1731"
   transform="translate(-223.8209,-223.8209)">
</g>
<g
   id="g1733"
   transform="translate(-223.8209,-223.8209)">
</g>
</svg>
