<?xml version="1.0" encoding="UTF-8" standalone="no"?>
<!-- Uploaded to: SVG Repo, www.svgrepo.com, Generator: SVG Repo Mixer Tools -->

<svg
   width="150"
   height="150"
   viewBox="0 0 2.8125 2.8125"
   fill="none"
   version="1.1"
   id="svg68"
   sodipodi:docname="engineered.svg"
   inkscape:version="1.2.2 (732a01da63, 2022-12-09)"
   xmlns:inkscape="http://www.inkscape.org/namespaces/inkscape"
   xmlns:sodipodi="http://sodipodi.sourceforge.net/DTD/sodipodi-0.dtd"
   xmlns="http://www.w3.org/2000/svg"
   xmlns:svg="http://www.w3.org/2000/svg">
  <defs
     id="defs72" />
  <sodipodi:namedview
     id="namedview70"
     pagecolor="#505050"
     bordercolor="#ffffff"
     borderopacity="1"
     inkscape:showpageshadow="0"
     inkscape:pageopacity="0"
     inkscape:pagecheckerboard="1"
     inkscape:deskcolor="#505050"
     showgrid="false"
     inkscape:zoom="1.005"
     inkscape:cx="400.49751"
     inkscape:cy="320.89552"
     inkscape:window-width="1920"
     inkscape:window-height="991"
     inkscape:window-x="-9"
     inkscape:window-y="-9"
     inkscape:window-maximized="1"
     inkscape:current-layer="svg68" />
  <path
     fill-rule="evenodd"
     clip-rule="evenodd"
     d="m 1.0440731,0 h 0.7238325 l 0.030658,0.15687712 1.069e-4,5.3588e-4 0.050426,0.250392 C 1.9210125,0.44013 1.9877058,0.4801519 2.0493933,0.52545187 L 2.3014687,0.43954125 2.4508875,0.39235875 2.5289062,0.5287125 2.7327562,0.87638062 2.8125,1.0157662 2.6937375,1.1212856 2.5046625,1.2852169 c 0.00594,0.036797 0.011437,0.078336 0.011437,0.1210275 0,0.042692 -0.00549,0.084236 -0.011437,0.1210387 L 2.6945812,1.6919531 2.8125,1.7967375 2.73225,1.9369687 2.5289437,2.28375 2.4508875,2.4204937 2.2995375,2.372325 2.0493937,2.28705 C 1.9877067,2.33235 1.9210125,2.3723625 1.8490969,2.4046875 L 1.7986706,2.655075 1.7985637,2.6556187 1.7679075,2.8125 H 1.0440712 L 1.0136962,2.6552625 0.9630825,2.4047062 C 0.8911575,2.3723812 0.82445437,2.33235 0.76276125,2.28705 L 0.51085687,2.3729062 0.36112875,2.4205312 0.28335562,2.283675 0.079308,1.9359562 0,1.7967394 0.118407,1.6912125 0.307545,1.527225 C 0.301629,1.4905256 0.2960381,1.4488256 0.2960381,1.4062444 c 0,-0.042581 0.005591,-0.084274 0.0115069,-0.1209694 L 0.1174605,1.120455 3.9936e-6,1.0157625 0.07991287,0.87548437 0.28338187,0.52878 l 0.0777469,-0.13646438 0.15148312,0.0478613 0.2501475,0.085275 c 0.0616912,-0.0453075 0.12839623,-0.0853331 0.20032311,-0.11766 L 1.0136981,0.15721406 Z m 0.36198,0.93747375 c -0.2539837,0 -0.4601756,0.20992315 -0.4601756,0.46878185 0,0.258855 0.2061881,0.4688006 0.4601756,0.4688006 0.2539875,0 0.4601756,-0.2099456 0.4601756,-0.4688006 0,-0.2588587 -0.2061918,-0.46878185 -0.4601756,-0.46878185 z"
     fill="#000000"
     id="path66"
     style="fill:#ffffff;stroke-width:0.1875" />
</svg>
