<?xml version="1.0" encoding="UTF-8" standalone="no"?>
<!-- Uploaded to: SVG Repo, www.svgrepo.com, Generator: SVG Repo Mixer Tools -->

<svg
   fill="#000000"
   height="150"
   width="150"
   version="1.1"
   id="Layer_1"
   viewBox="0 0 96 96"
   xml:space="preserve"
   sodipodi:docname="hardwood.svg"
   inkscape:version="1.2.2 (732a01da63, 2022-12-09)"
   xmlns:inkscape="http://www.inkscape.org/namespaces/inkscape"
   xmlns:sodipodi="http://sodipodi.sourceforge.net/DTD/sodipodi-0.dtd"
   xmlns="http://www.w3.org/2000/svg"
   xmlns:svg="http://www.w3.org/2000/svg"><defs
   id="defs94" /><sodipodi:namedview
   id="namedview92"
   pagecolor="#505050"
   bordercolor="#ffffff"
   borderopacity="1"
   inkscape:showpageshadow="0"
   inkscape:pageopacity="0"
   inkscape:pagecheckerboard="1"
   inkscape:deskcolor="#505050"
   showgrid="false"
   inkscape:zoom="1.005"
   inkscape:cx="400.49751"
   inkscape:cy="354.72637"
   inkscape:window-width="1920"
   inkscape:window-height="991"
   inkscape:window-x="-9"
   inkscape:window-y="-9"
   inkscape:window-maximized="1"
   inkscape:current-layer="Layer_1" />
<g
   id="g53"
   transform="matrix(0.18750412,0,0,0.18750046,-0.0011719,-2.3437378e-4)"
   style="fill:#ffffff">
	<g
   id="g51"
   style="fill:#ffffff">
		<path
   id="path49"
   d="M 250.435,0.00125 C 237.62276,0.001 224.81074,4.8950098 215.02125,14.685 197.44327,32.261982 196.03501,58.940519 208.775,77.9225 h -91.9025 c -64.439936,0 -116.86625,52.42756 -116.86625,116.8675 0,42.46296 22.766284,79.70652 56.73125,100.1725 C 22.772534,315.42948 0.00625,352.66954 0.00625,395.1325 0.00625,459.57344 52.431564,512 116.8725,512 h 278.255 c 64.43994,0 116.8675,-52.42756 116.8675,-116.8675 0,-42.46296 -22.76753,-79.70402 -56.7325,-100.17 33.96497,-20.46598 56.7325,-57.70954 56.7325,-100.1725 0,-64.43994 -52.42756,-116.8675 -116.8675,-116.8675 h -46.04 L 285.8475,14.685 C 276.05901,4.8960098 263.24724,0.0015 250.435,0.00125 Z m -0.001,33.41125 c 4.27425,0 8.54925,1.627253 11.80375,4.88125 l 68.12875,68.12875 c 3.131,3.131 7.377,4.89125 11.805,4.89125 h 52.955 c 46.02895,0 83.47625,37.4483 83.47625,83.47625 0,46.02795 -37.4483,83.47625 -83.47625,83.47625 h -196.554 c 9.79499,-9.58899 17.91601,-20.87826 23.875,-33.39125 h 61.37875 c 9.21999,0 16.695,-7.47501 16.695,-16.695 0,-9.21999 -7.47501,-16.695 -16.695,-16.695 H 232.5425 c 0.784,-5.45499 1.1975,-11.02701 1.1975,-16.695 0,-32.67197 -13.48252,-62.24827 -35.1675,-83.47625 h 49.16625 v -0.001 c 14.82299,0 22.30899,-17.996011 11.805,-28.5 L 238.63125,61.9 c -6.52799,-6.528993 -6.52899,-17.076257 0,-23.60625 3.2545,-3.253997 7.52825,-4.88125 11.8025,-4.88125 z m -133.5615,77.90125 c 46.02895,0 83.47625,37.4483 83.47625,83.47625 0,46.02795 -37.4483,83.47625 -83.47625,83.47625 -46.028954,0 -83.47625,-37.4473 -83.47625,-83.47625 0,-46.02895 37.448296,-83.47625 83.47625,-83.47625 z m 0,33.39 c -27.616972,0 -50.085,22.46928 -50.085,50.08625 0,27.61697 22.468028,50.08625 50.085,50.08625 27.61697,0 50.08625,-22.46928 50.08625,-50.08625 0,-27.61697 -22.46928,-50.08625 -50.08625,-50.08625 z m 166.95375,0 c -9.21999,0 -16.695,7.47501 -16.695,16.695 0,9.21999 7.47501,16.695 16.695,16.695 H 395.1275 c 9.21999,0 16.695,-7.47501 16.695,-16.695 0,-9.21999 -7.47501,-16.695 -16.695,-16.695 z M 116.8725,178.095 c 9.20599,0 16.695,7.49001 16.695,16.695 0,9.20499 -7.49001,16.695 -16.695,16.695 -9.20599,0 -16.695,-7.49001 -16.695,-16.695 0,-9.20499 7.49001,-16.695 16.695,-16.695 z m 244.865,33.39 c -9.21999,0 -16.695,7.47501 -16.695,16.695 0,9.21999 7.47501,16.695 16.695,16.695 h 33.39 c 9.21999,0 16.695,-7.47501 16.695,-16.695 0,-9.21999 -7.47501,-16.695 -16.695,-16.695 z m -244.865,100.1725 c 46.02895,0 83.47625,37.4483 83.47625,83.47625 0,46.02795 -37.4473,83.47625 -83.47625,83.47625 -46.028954,0 -83.47625,-37.4483 -83.47625,-83.47625 0,-46.02895 37.447296,-83.47625 83.47625,-83.47625 z m 81.7,0 h 196.555 c 46.02895,0 83.47625,37.4483 83.47625,83.47625 0,46.02795 -37.4483,83.47625 -83.47625,83.47625 h -196.555 c 9.79499,-9.58899 17.91601,-20.87826 23.875,-33.39125 h 72.50875 c 9.21999,0 16.695,-7.47501 16.695,-16.695 0,-9.21999 -7.47501,-16.695 -16.695,-16.695 H 232.5425 c 0.784,-5.45499 1.1975,-11.02701 1.1975,-16.695 0,-32.67197 -13.48252,-62.24827 -35.1675,-83.47625 z m -81.7,33.39 c -27.616972,0 -50.085,22.46803 -50.085,50.085 0,27.61697 22.468028,50.08625 50.085,50.08625 27.61697,0 50.08625,-22.46928 50.08625,-50.08625 0,-27.61697 -22.46928,-50.085 -50.08625,-50.085 z m 166.95375,0 c -9.21999,0 -16.695,7.47501 -16.695,16.695 0,9.21999 7.47501,16.695 16.695,16.695 H 395.1275 c 9.21999,0 16.695,-7.47501 16.695,-16.695 0,-9.21999 -7.47501,-16.695 -16.695,-16.695 z M 116.8725,378.43875 c 9.20599,0 16.695,7.49001 16.695,16.695 0,9.20499 -7.49001,16.695 -16.695,16.695 -9.20599,0 -16.695,-7.49001 -16.695,-16.695 0,-9.20599 7.49001,-16.695 16.695,-16.695 z m 244.865,33.39 c -9.21999,0 -16.695,7.47501 -16.695,16.695 0,9.21999 7.47501,16.695 16.695,16.695 h 33.39 c 9.21999,0 16.695,-7.47501 16.695,-16.695 0,-9.21999 -7.47501,-16.695 -16.695,-16.695 z"
   style="fill:#ffffff" />
	</g>
</g>
<g
   id="g59"
   transform="translate(-0.00625,-0.00124999)">
	<g
   id="g57">
		
	</g>
</g>
<g
   id="g65"
   transform="translate(-0.00625,-0.00124999)">
	<g
   id="g63">
		
	</g>
</g>
<g
   id="g71"
   transform="translate(-0.00625,-0.00124999)">
	<g
   id="g69">
		
	</g>
</g>
<g
   id="g77"
   transform="translate(-0.00625,-0.00124999)">
	<g
   id="g75">
		
	</g>
</g>
<g
   id="g83"
   transform="translate(-0.00625,-0.00124999)">
	<g
   id="g81">
		
	</g>
</g>
<g
   id="g89"
   transform="translate(-0.00625,-0.00124999)">
	<g
   id="g87">
		
	</g>
</g>
</svg>
