<?xml version="1.0" encoding="UTF-8" standalone="no"?>
<!-- Generator: Adobe Illustrator 18.1.1, SVG Export Plug-In . SVG Version: 6.00 Build 0)  -->

<svg

   version="1.1"
   id="Capa_1"
   x="0px"
   y="0px"
   viewBox="0 0 15.999999 16.000002"
   xml:space="preserve"
   sodipodi:docname="home-improvement.svg"
   width="15.999999"
   height="16.000002"
   inkscape:version="1.2.1 (9c6d41e410, 2022-07-14)"
   xmlns:inkscape="http://www.inkscape.org/namespaces/inkscape"
   xmlns:sodipodi="http://sodipodi.sourceforge.net/DTD/sodipodi-0.dtd"
   xmlns="http://www.w3.org/2000/svg"
   xmlns:svg="http://www.w3.org/2000/svg"><defs
   id="defs389" /><sodipodi:namedview
   id="namedview387"
   pagecolor="#ffffff"
   bordercolor="#111111"
   borderopacity="1"
   inkscape:showpageshadow="0"
   inkscape:pageopacity="0"
   inkscape:pagecheckerboard="1"
   inkscape:deskcolor="#d1d1d1"
   showgrid="false"
   inkscape:zoom="27.475027"
   inkscape:cx="-4.1128258"
   inkscape:cy="8.3894367"
   inkscape:window-width="1920"
   inkscape:window-height="991"
   inkscape:window-x="-9"
   inkscape:window-y="-9"
   inkscape:window-maximized="1"
   inkscape:current-layer="Capa_1" />
<g
   id="g354"
   transform="matrix(0.03417279,0,0,0.03751639,8.5862408e-6,-0.782731)">
	<g
   id="g352">
		<path
   style="fill:#fff"
   d="m 268.662,35.005 c -17.826,-17.826 -45.935,-18.72 -65.069,-3.129 -1.284,1.04 -2.609,1.943 -3.804,3.129 L 7.141,227.661 c -9.527,9.519 -9.519,24.963 0.008,34.481 1.187,1.187 2.479,2.235 3.829,3.129 4.056,2.682 8.738,4.016 13.42,4.016 4.682,0 8.145,-1.479 12.201,-4.162 1.349,-0.894 1.853,-1.796 3.04,-2.983 l 13.892,-15.899 v 111.361 c 0,49.089 47.39,89.74 98.738,89.74 h 171.667 c 50.316,0 87.252,-39.814 87.252,-89.74 V 250.388 l 13.762,11.762 c 4.755,4.763 12.006,7.145 18.241,7.145 6.235,0 12.981,-2.382 17.745,-7.145 9.527,-9.519 9.779,-24.963 0.252,-34.481 z m 93.755,322.599 c 0,23.036 -15.046,40.968 -38.481,40.968 H 152.269 c -24.483,0 -49.966,-18.712 -49.966,-40.968 V 197.471 L 230.295,69.487 362.417,201.609 Z"
   id="path348" />
		<path
   style="fill:#fff"
   d="m 139.686,254.282 c 0,1.821 0.098,3.633 0.276,5.43 0.309,3.203 0.935,6.308 1.756,9.332 0.138,0.512 0.244,1.032 0.398,1.544 0.122,0.398 0.26,0.78 0.39,1.171 15.607,49.983 91.804,89.065 91.804,89.065 0,0 76.197,-39.09 91.804,-89.065 0.13,-0.39 0.268,-0.772 0.39,-1.171 0.146,-0.512 0.26,-1.024 0.398,-1.544 0.821,-3.024 1.447,-6.129 1.756,-9.332 0.179,-1.796 0.276,-3.609 0.276,-5.43 0,-30.954 -25.093,-56.055 -56.055,-56.055 -14.957,0 -28.507,5.893 -38.562,15.444 -10.055,-9.543 -23.605,-15.444 -38.562,-15.444 -30.968,0 -56.069,25.093 -56.069,56.055 z"
   id="path350" />
	</g>
</g>
<g
   id="g356"
   transform="translate(-226.06572,-226.78186)">
</g>
<g
   id="g358"
   transform="translate(-226.06572,-226.78186)">
</g>
<g
   id="g360"
   transform="translate(-226.06572,-226.78186)">
</g>
<g
   id="g362"
   transform="translate(-226.06572,-226.78186)">
</g>
<g
   id="g364"
   transform="translate(-226.06572,-226.78186)">
</g>
<g
   id="g366"
   transform="translate(-226.06572,-226.78186)">
</g>
<g
   id="g368"
   transform="translate(-226.06572,-226.78186)">
</g>
<g
   id="g370"
   transform="translate(-226.06572,-226.78186)">
</g>
<g
   id="g372"
   transform="translate(-226.06572,-226.78186)">
</g>
<g
   id="g374"
   transform="translate(-226.06572,-226.78186)">
</g>
<g
   id="g376"
   transform="translate(-226.06572,-226.78186)">
</g>
<g
   id="g378"
   transform="translate(-226.06572,-226.78186)">
</g>
<g
   id="g380"
   transform="translate(-226.06572,-226.78186)">
</g>
<g
   id="g382"
   transform="translate(-226.06572,-226.78186)">
</g>
<g
   id="g384"
   transform="translate(-226.06572,-226.78186)">
</g>
</svg>
