<?xml version="1.0" encoding="UTF-8" standalone="no"?>
<!-- Generator: Adobe Illustrator 19.0.0, SVG Export Plug-In . SVG Version: 6.00 Build 0)  -->

<svg
fill="#fff"
   version="1.1"
   id="Layer_1"
   x="0px"
   y="0px"
   viewBox="0 0 16.754836 14.504686"
   xml:space="preserve"
   sodipodi:docname="mute.svg"
   width="16.754835"
   height="14.504685"
   inkscape:version="1.2.1 (9c6d41e410, 2022-07-14)"
   xmlns:inkscape="http://www.inkscape.org/namespaces/inkscape"
   xmlns:sodipodi="http://sodipodi.sourceforge.net/DTD/sodipodi-0.dtd"
   xmlns="http://www.w3.org/2000/svg"
   xmlns:svg="http://www.w3.org/2000/svg"><defs
   id="defs3888" /><sodipodi:namedview
   id="namedview3886"
   pagecolor="#ffffff"
   bordercolor="#111111"
   borderopacity="1"
   inkscape:showpageshadow="0"
   inkscape:pageopacity="0"
   inkscape:pagecheckerboard="1"
   inkscape:deskcolor="#d1d1d1"
   showgrid="false"
   inkscape:zoom="9.8943819"
   inkscape:cx="9.2476721"
   inkscape:cy="8.1359301"
   inkscape:window-width="1920"
   inkscape:window-height="991"
   inkscape:window-x="-9"
   inkscape:window-y="-9"
   inkscape:window-maximized="1"
   inkscape:current-layer="Layer_1" />
<g
   id="g3853"
   transform="matrix(0.03645,0,0,0.03645,0,-1.1250742)">
	<g
   id="g3851">
		<g
   id="g3849">
			<path
   d="m 452.15,37.997 c -9.868,-9.658 -25.698,-9.482 -35.353,0.386 L 76.371,386.316 c -9.656,9.868 -9.483,25.697 0.386,35.353 4.863,4.76 11.175,7.131 17.481,7.131 6.49,0 12.975,-2.511 17.871,-7.517 L 452.535,73.349 c 9.657,-9.868 9.484,-25.698 -0.385,-35.352 z"
   id="path3835" />
			<path
   d="m 391.27,178.862 c 8.127,15.205 12.742,32.558 12.742,50.97 0,59.667 -48.414,108.235 -108.021,108.496 v 55.524 c 90.224,-0.261 163.546,-73.736 163.546,-164.02 0,-34.026 -10.418,-65.661 -28.227,-91.893 z"
   id="path3837" />
			<path
   d="m 295.991,65.812 v 53.144 l 45.556,-46.561 c -14.466,-4.236 -29.75,-6.538 -45.556,-6.583 z"
   id="path3839" />
			<path
   d="m 295.992,317.912 c 48.353,-0.261 87.612,-39.667 87.612,-88.08 0,-12.622 -2.674,-24.63 -7.476,-35.493 l -80.136,81.904 z"
   id="path3841" />
			<polygon
   points="295.992,317.912 295.991,317.912 "
   id="polygon3843" />
			<path
   d="m 220.376,416.631 c 8.254,6.506 19.498,7.722 28.951,3.137 9.455,-4.586 15.458,-14.171 15.458,-24.679 v -86.953 l -79.269,81.018 z"
   id="path3845" />
			<path
   d="M 264.785,150.849 V 64.575 c 0,-10.508 -6.003,-20.093 -15.458,-24.679 -9.429,-4.574 -20.676,-3.385 -28.951,3.137 L 116.917,124.58 c -19.767,0 -77.052,0 -87.431,0 C 13.201,124.581 0,137.783 0,154.067 c 0,1.442 0,149.897 0,151.532 0,16.284 13.201,29.486 29.486,29.486 6.611,0 32.207,0 55.042,0 z"
   id="path3847" />
		</g>
	</g>
</g>
<g
   id="g3855"
   transform="translate(-221.45571,-222.58078)">
</g>
<g
   id="g3857"
   transform="translate(-221.45571,-222.58078)">
</g>
<g
   id="g3859"
   transform="translate(-221.45571,-222.58078)">
</g>
<g
   id="g3861"
   transform="translate(-221.45571,-222.58078)">
</g>
<g
   id="g3863"
   transform="translate(-221.45571,-222.58078)">
</g>
<g
   id="g3865"
   transform="translate(-221.45571,-222.58078)">
</g>
<g
   id="g3867"
   transform="translate(-221.45571,-222.58078)">
</g>
<g
   id="g3869"
   transform="translate(-221.45571,-222.58078)">
</g>
<g
   id="g3871"
   transform="translate(-221.45571,-222.58078)">
</g>
<g
   id="g3873"
   transform="translate(-221.45571,-222.58078)">
</g>
<g
   id="g3875"
   transform="translate(-221.45571,-222.58078)">
</g>
<g
   id="g3877"
   transform="translate(-221.45571,-222.58078)">
</g>
<g
   id="g3879"
   transform="translate(-221.45571,-222.58078)">
</g>
<g
   id="g3881"
   transform="translate(-221.45571,-222.58078)">
</g>
<g
   id="g3883"
   transform="translate(-221.45571,-222.58078)">
</g>
</svg>
