<?xml version="1.0" encoding="UTF-8" standalone="no"?>
<svg
   viewBox="0 0 40.06321 7.5129151"
   width="40.06321"
   height="7.5129151"
   version="1.1"
   id="svg12"
   sodipodi:docname="mybuilder.svg"
   inkscape:version="1.2.2 (732a01da63, 2022-12-09)"
   xmlns:inkscape="http://www.inkscape.org/namespaces/inkscape"
   xmlns:sodipodi="http://sodipodi.sourceforge.net/DTD/sodipodi-0.dtd"
   xmlns="http://www.w3.org/2000/svg"
   xmlns:svg="http://www.w3.org/2000/svg">
  <defs
     id="defs16" />
  <sodipodi:namedview
     id="namedview14"
     pagecolor="#505050"
     bordercolor="#ffffff"
     borderopacity="1"
     inkscape:showpageshadow="0"
     inkscape:pageopacity="0"
     inkscape:pagecheckerboard="1"
     inkscape:deskcolor="#505050"
     showgrid="false"
     inkscape:zoom="1.8985507"
     inkscape:cx="20.278626"
     inkscape:cy="3.9503817"
     inkscape:window-width="1920"
     inkscape:window-height="991"
     inkscape:window-x="-9"
     inkscape:window-y="-9"
     inkscape:window-maximized="1"
     inkscape:current-layer="svg12" />
  <path
     d="m 13.85409,2.709792 c 0.29076,-0.220968 0.54662,-0.616387 0.54662,-1.168809 0,-0.930396 -0.71524,-1.535153 -1.8201,-1.535153 h -2.38414 a 0.11629947,0.11629947 0 0 0 -0.11629,0.116299 v 0.860617 c 0,0.05815 0.0522,0.116299 0.11629,0.116299 h 0.38961 v 4.012332 c 0,0.430308 0.20934,0.639647 0.63965,0.639647 h 1.37814 c 1.24441,0 2.01781,-0.657092 2.01781,-1.715418 0,-0.598941 -0.29076,-1.099029 -0.76759,-1.325814 z M 11.83049,1.09323 h 0.73849 c 0.36635,0 0.57569,0.209339 0.57569,0.569867 0,0.360529 -0.22097,0.593127 -0.55824,0.593127 h -0.75594 z m 0.84898,3.564579 h -0.79083 c -0.0465,0 -0.058,-0.01163 -0.058,-0.05815 V 3.297106 h 0.84897 c 0.40707,0 0.66293,0.261674 0.66293,0.680351 0,0.430309 -0.24425,0.686168 -0.66293,0.686168 z M 20.80299,0.00583 h -0.98274 c -0.0581,0 -0.11049,0.05233 -0.11049,0.116299 v 0.860617 c 0,0.05815 0.0523,0.116299 0.11632,0.116299 h 0.97691 c 0.058,0 0.11629,-0.05815 0.11629,-0.116299 V 0.116313 c 0,-0.05815 -0.058,-0.116299 -0.11629,-0.116299 m 8.94344,1.465373 c -1.25023,0 -2.12831,0.901323 -2.12831,2.18643 a 2.1457252,2.1457253 0 0 0 2.24459,2.192246 2.5062536,2.5062535 0 0 0 1.67472,-0.633831 0.11629947,0.11629947 0 0 0 0.0174,-0.139562 L 31.14197,4.39032 A 0.11629947,0.11629947 0 0 0 30.96751,4.36706 c 0,0 -0.44775,0.407048 -1.03506,0.407048 -0.43612,0 -0.93039,-0.220969 -1.05834,-0.837356 h 2.60513 a 0.11629947,0.11629947 0 0 0 0.11629,-0.09885 c 0,-0.01162 0.0232,-0.255859 0.0232,-0.377974 0,-1.192069 -0.75593,-1.994536 -1.87241,-1.994536 z m -0.81992,1.564229 a 0.81409641,0.81409641 0 0 1 0.81992,-0.575683 c 0.31982,0 0.56404,0.232599 0.62219,0.575683 z M 20.27382,1.558428 h -0.93039 a 0.11629947,0.11629947 0 0 0 -0.1163,0.116299 v 0.831541 c 0,0.05815 0.0523,0.1163 0.1163,0.1163 h 0.3082 c 0.0523,0 0.0581,0 0.0581,0.05815 V 5.62891 c 0,0.06396 0.0523,0.116299 0.11631,0.116299 h 0.9769 c 0.0581,0 0.11632,-0.05233 0.11632,-0.116299 V 2.139926 c 0,-0.261674 -0.11632,-0.581498 -0.64547,-0.581498 m 2.24458,-1.552597 h -0.97692 a 0.11629947,0.11629947 0 0 0 -0.1163,0.116299 v 5.512595 c 0,0.06396 0.0523,0.1163 0.1163,0.1163 h 0.9711 a 0.11629947,0.11629947 0 0 0 0.1163,-0.1163 V 0.122129 c 0,-0.05815 -0.0523,-0.116299 -0.1163,-0.116299 M 19.1864,4.692699 h -0.31403 c -0.0465,0 -0.0581,-0.01163 -0.0581,-0.05815 V 1.668911 c 0,-0.05815 -0.058,-0.110484 -0.1163,-0.110484 h -0.98274 c -0.0581,0 -0.11629,0.05233 -0.11629,0.1163 v 1.814272 c 0,0.593128 -0.30821,1.221144 -0.99438,1.221144 -0.36633,0 -0.50007,-0.186078 -0.50007,-0.69198 V 1.674727 A 0.11629947,0.11629947 0 0 0 15.98818,1.558428 h -0.9769 c -0.058,0 -0.11632,0.05233 -0.11632,0.116299 v 2.546959 c 0,1.07577 0.50009,1.622377 1.48283,1.622377 0.55823,0 1.00018,-0.255859 1.26767,-0.569866 0.0349,0.296562 0.26166,0.476827 0.62801,0.476827 h 0.91295 c 0.0581,0 0.11629,-0.05233 0.11629,-0.116299 V 4.803183 c 0,-0.05815 -0.058,-0.116299 -0.11629,-0.116299 m 8.35029,0.0058 h -0.30235 c -0.0465,0 -0.0581,-0.01162 -0.0581,-0.05815 V 0.1163 C 27.17626,0.05815 27.12976,0 27.05994,0 h -0.9769 c -0.0581,0 -0.11051,0.05815 -0.11051,0.1163 v 1.674713 a 1.6281927,1.6281927 0 0 0 -1.04669,-0.32564 c -1.12809,0 -1.91892,0.901321 -1.91892,2.18643 0,1.314185 0.75594,2.192246 1.88405,2.192246 0.59312,0 0.95946,-0.261673 1.15136,-0.465199 0.0465,0.168635 0.17445,0.372159 0.58732,0.372159 h 0.90712 A 0.11629947,0.11629947 0 0 0 27.65309,5.634711 V 4.803168 c 0,-0.05814 -0.0523,-0.116299 -0.11632,-0.116299 z m -2.43065,0.09304 c -0.52334,0 -0.86644,-0.441938 -0.86644,-1.133921 0,-0.662906 0.35473,-1.110659 0.88389,-1.110659 0.59894,0 0.86643,0.552423 0.86643,1.104845 0,0.837357 -0.45938,1.139735 -0.88388,1.139735 z M 34.7124,1.517709 34.51468,1.506079 a 1.3955936,1.3955936 0 0 0 -1.14554,0.639647 c 0,-0.273305 -0.11629,-0.581497 -0.63965,-0.581497 h -0.91295 c -0.0581,0 -0.11629,0.04652 -0.11629,0.110484 v 0.83154 c 0,0.05815 0.058,0.1163 0.11629,0.1163 h 0.314 c 0.0465,0 0.0581,0 0.0581,0.05815 v 2.948192 c 0,0.06396 0.0465,0.116299 0.11631,0.116299 h 0.97692 c 0.0581,0 0.1163,-0.05234 0.1163,-0.116299 V 4.029774 c 0,-0.907135 0.46521,-1.325811 1.04669,-1.325811 0.12793,0 0.22097,0.01163 0.22679,0.01163 A 0.11629947,0.11629947 0 0 0 34.79957,2.599292 V 1.639823 a 0.11629947,0.11629947 0 0 0 -0.093,-0.116299 M 9.99879,4.33217 c 0.0175,-0.01745 -0.005,0 0,-0.03488 L 9.98139,4.21006 c 0.0291,0 0.0116,-0.04652 -0.0116,-0.08723 C 9.94069,4.07631 9.90009,4.04142 9.89419,4.00653 L 9.85929,3.98327 9.80129,3.94839 C 9.78969,3.93676 9.76639,3.93676 9.74319,3.93676 H 9.69669 L 9.51642,3.92514 c 0.0349,0.02908 -0.10467,0 -0.16282,0 L 9.3885,3.047079 9.4117,2.378358 c 0,-0.18608 0.0174,-0.15119 0,-0.18608 C 9.4001,2.163198 9.4001,2.035274 9.4001,2.035274 L 9.3951,1.686376 c 0.0116,0.0058 0,-0.01746 0.005,-0.02908 V 1.459519 L 9.3951,1.314146 9.4067,1.279276 A 2.1864302,2.1864302 0 0 0 9.2904,0.645444 0.45356793,0.45356793 0 0 0 9.11595,0.430289 c -0.0116,0 0,0.0058 0,0.01745 l -0.029,-0.01163 -0.0581,-0.01746 h -0.064 l -0.0581,-0.01745 c -0.0697,0 -0.16281,0.01745 -0.22096,0.05815 -0.058,0.04071 -0.093,0.08723 -0.11629,0.104671 0.0116,0 0,0.02908 -0.0407,0.09304 -0.1512,0.203523 -0.058,0.05815 -0.1512,0.174448 -0.0116,0.03488 -0.0407,0.0756 -0.0697,0.1163 -0.029,0.04652 -0.0465,0.0814 -0.0406,0.08723 -0.0349,0.06396 -0.0522,0.0756 -0.0697,0.09304 A 12.321928,12.321928 0 0 1 7.48234,2.738826 h -0.005 C 7.43664,2.802786 7.24475,3.058649 7.08193,3.262175 7.05873,3.221465 7.04703,3.186575 7.05293,3.169135 7.01223,3.105175 6.99483,3.052836 6.97733,3.006316 V 2.953966 L 6.95413,2.884186 C 6.92503,2.756258 6.91923,2.680662 6.90193,2.593438 L 6.85543,2.296874 c 0.0232,0.0814 0.005,-0.139558 0,-0.273304 V 1.849123 c 0,-0.267489 -0.029,-0.505902 -0.0522,-0.726871 A 4.651979,4.6519786 0 0 1 6.78003,0.796613 1.8433467,1.8433468 0 0 0 6.75673,0.482604 v -0.0058 l -0.005,-0.01163 A 0.49427278,0.49427278 0 0 0 6.63515,0.279093 c -0.0174,-0.02326 -0.0581,-0.05233 -0.093,-0.06396 a 0.17444921,0.17444921 0 0 0 -0.093,-0.0058 c -0.0523,0 -0.0872,0.01746 -0.10468,0.02326 -0.093,0.03488 -0.13955,0.0756 -0.18027,0.104668 l -0.0929,0.093 c -0.0291,0.03487 -0.058,0.05815 -0.093,0.110483 l -0.093,0.18608 -0.0465,0.133745 -0.005,0.0058 v 0.03488 C 5.8163,0.959399 5.7989,1.075697 5.7873,1.157108 5.7699,1.244328 5.7699,1.302481 5.7699,1.261778 L 5.7524,1.349008 A 18.200868,18.200868 0 0 1 5.5954,1.95958 V 1.97704 L 5.5605,2.157304 5.5431,2.238714 C 5.5381,2.267794 5.5381,2.227084 5.485,2.37246 5.4094,2.529463 5.4734,2.34919 5.3687,2.639948 l -0.0116,0.02908 c -0.093,0.250044 -0.20935,0.424493 -0.29076,0.558237 -0.0349,0.08141 0,0.01163 -0.0406,0.0756 l 0.0116,0.01746 c -0.0465,0.0756 -0.0349,0.05815 -0.0407,0.05233 -0.0116,0.05233 -0.0522,0.09304 -0.0697,0.122114 V 3.36683 L 4.90954,3.28542 C 4.90454,3.2389 4.89214,3.19819 4.89214,3.006302 V 2.796963 c 0.0174,-0.238415 0,-0.261675 0,-0.389604 -0.005,-0.04652 -0.0116,-0.02908 -0.005,-0.191895 L 4.91034,1.994496 4.92774,1.820047 V 1.558386 c 0.005,0 0.0174,0 0.005,-0.05815 -0.0465,-0.16282 -0.093,-0.244228 -0.1512,-0.325638 a 0.47101288,0.47101288 0 0 0 -0.314,-0.17445 0.1977091,0.1977091 0 0 0 -0.0522,-0.01163 c -0.0581,0 -0.20352,0.01745 -0.26749,0.02908 A 0.43030805,0.43030805 0 0 0 3.89781,1.174603 0.75594654,0.75594654 0 0 0 3.78152,1.413015 l -0.0756,0.267491 c -0.0232,0.09304 0,0.05233 -0.0407,0.162819 0,0.05815 -0.0814,0.267489 -0.1163,0.407048 -0.0116,-0.01163 -0.0465,0.0756 -0.0756,0.127929 0.0116,0 -0.10466,0.319824 -0.0872,0.372159 l -0.0814,0.186078 -0.0581,0.18608 -0.0116,0.03488 v 0.02908 l -0.0116,0.04071 -0.0349,0.203526 -0.0116,0.03488 v 0.0058 l -0.0116,-0.01162 c -0.0116,-0.02326 -0.0174,-0.133746 -0.029,-0.16282 l -0.0232,-0.09886 -0.005,-0.04071 V 2.988857 c -0.0116,-0.05815 -0.0232,-0.06978 -0.0232,-0.209341 0,-0.0058 0,0 0,0 0,-0.02908 -0.005,-0.116299 -0.0174,-0.09304 0.0407,-0.372158 0.0174,-1.046695 0.0174,-1.372334 A 1.7444921,1.7444921 0 0 0 2.98602,0.87802 C 2.95702,0.80823 2.91632,0.738459 2.86973,0.674496 2.81173,0.616346 2.76506,0.569827 2.69527,0.540751 A 0.45356793,0.45356793 0 0 0 2.42198,0.500041 c -0.0291,0 -0.17446,0.02327 -0.23261,0.04071 H 2.17777 A 0.17444921,0.17444921 0 0 0 2.0731,0.581461 c -0.0465,0.02908 -0.093,0.0756 -0.13375,0.13956 -0.0407,0.05815 -0.0697,0.133743 -0.0989,0.203524 l -0.0349,0.09885 c -0.0174,0.03487 -0.0116,0.0058 -0.0232,0.03487 -0.0756,0.174449 -0.15699,0.436124 -0.27911,0.715242 0,0 0,-0.01163 -0.005,0 -0.0639,0.197708 -0.22097,0.569867 -0.32563,0.848986 l -0.0465,0.127929 -0.0639,0.168635 -0.0116,0.0058 -0.005,0.01163 V 2.866727 L 1.02821,2.674832 v -0.03488 l 0.0116,-0.04071 0.0116,-0.04652 0.0116,-0.203525 0.0116,0.01745 0.0174,-0.395418 c 0,-0.10467 0,-0.174449 0.0232,-0.377973 0,-0.232597 0.0407,-0.186078 0.0581,-0.418678 L 1.20811,1.116428 1.22551,0.96524 C 1.23051,0.90709 1.23711,0.819867 1.20231,0.738456 1.14431,0.575637 1.02785,0.447707 0.87666,0.418632 l -0.0464,-0.01163 h -0.0581 c -0.0465,0 -0.0697,0.02327 -0.0988,0.03487 A 0.3547134,0.3547134 0 0 1 0.5338,0.482582 H 0.5164 a 0.05814975,0.05814974 0 0 0 -0.0174,0 L 0.4699,0.505852 A 0.29074867,0.29074868 0 0 0 0.4176,0.610525 C 0.4126,0.593065 0.3885,0.633795 0.3711,0.703565 A 2.1515404,2.1515402 0 0 0 0.3304,1.000128 C 0.313,1.232727 0.2955,1.494402 0.2723,1.599071 0.2607,2.134049 0.2142,2.657397 0.1793,3.273783 0.1967,3.355193 0.1677,3.454049 0.2141,3.424973 a 1.8607916,1.8607916 0 0 1 -0.0174,0.20934 v -0.02908 0.02908 L 0.1386,4.06462 c -0.0116,0.0756 -0.0349,0 -0.0581,0.20934 0,0.02908 0.005,0.116299 -0.0116,0.290748 V 4.681007 C 0.0573,5.117131 0.0457,4.820567 0.0341,4.971757 l -0.005,0.02326 C 0.0291,5.111316 0.0059,5.320656 0,5.535808 v 0.04652 c 0,0.02327 0.0116,0.04071 0.0175,0.05815 l 0.0348,0.08723 c 0.029,0.05815 0.0581,0.10467 0.093,0.145374 0.0639,0.08723 0.093,0.133745 0.15702,0.174449 0.0175,0.01163 0.0175,0.02326 0.0232,0.02908 l 0.029,0.01745 0.0406,0.02327 c 0.0291,0.01745 0.0639,0.02326 0.093,0.02326 0.0465,0 0.093,0 0.13956,-0.01746 A 0.40704814,0.40704818 0 0 0 0.83702,5.977757 C 0.93592,5.844011 0.9824,5.698638 1.02311,5.564892 1.09871,5.285775 1.1801,5.029915 1.2557,4.838023 L 1.2673,4.808943 C 1.2905,4.715903 1.2848,4.710083 1.337,4.593787 A 1.9073115,1.9073115 0 0 1 1.44169,4.320484 C 1.62776,3.832026 1.67429,3.552905 1.81384,3.134229 1.84294,3.145859 1.98829,2.762071 2.05807,2.564362 v 0.01163 c 0.0465,-0.116299 0.0814,-0.2326 0.1163,-0.343083 l 0.0117,-0.04652 0.0116,-0.02908 0.005,-0.04071 v -0.01746 h 0.005 l 0.0116,0.0058 0.0174,0.02327 0.0116,0.03487 v 0.01746 l 0.005,0.01746 v 0.02908 c 0.0232,0.151189 0.029,0.308192 0.0348,0.476826 a 12.595234,12.595234 0 0 0 0,1.32 l 0.0116,0.255859 0.0522,0.244228 c 0.0174,0.04071 0.0174,0.01163 0.0697,0.116301 0.0348,0.07559 0.093,0.162817 0.15119,0.226784 0.058,0.06396 0.0174,0.02908 0.0465,0.06396 -0.0116,0 0,0 0,0 0.0174,0.02908 0.0465,0.06978 0.093,0.10467 A 0.72687173,0.72687173 0 0 0 2.90997,5.152006 0.23259894,0.23259894 0 0 0 3.04953,5.122926 0.89550595,0.89550595 0 0 0 3.24724,4.948477 l -0.005,-0.04652 C 3.34114,4.797287 3.42832,4.657727 3.50391,4.494908 3.56781,4.343718 3.62022,4.16927 3.66092,4.012265 3.74812,3.686627 3.81793,3.395879 3.88771,3.256319 3.91681,3.12839 3.96911,2.971385 4.00399,2.84927 l 0.0232,0.01746 c 0.0464,-0.110483 0.0407,-0.09304 0.058,-0.1163 l 0.0232,-0.04071 v -0.0058 0.01163 l 0.005,0.02908 v 0.110486 c 0.005,0 0.005,0.01162 0,0.01162 v 0.0756 l 0.0232,0.127929 c 0.0116,0.08141 0.029,0.162819 0.029,0.284933 l -0.0232,0.06979 v 0.441938 a 0.88969096,0.88969096 0 0 0 0.0872,0.284933 0.97110063,0.97110063 0 0 0 0.30238,0.348898 c 0.0232,0.01746 0.0465,0.02908 0.0756,0.03487 a 0.29074867,0.29074868 0 0 0 0.12792,-0.01162 c 0.0697,-0.01746 0.0407,0.01162 0.0872,-0.02326 0,0 0.0639,-0.03488 0.0175,-0.01163 0.058,-0.02326 0.11631,-0.06978 0.18608,-0.127929 A 1.4770034,1.4770034 0 0 0 5.35773,3.930879 4.8089831,4.8089831 0 0 0 5.68919,3.337753 l 0.0116,0.01162 c 0.0697,-0.191894 0.0697,-0.203525 0.18024,-0.465197 0.0174,-0.03488 0.0232,-0.04071 0.0291,-0.03488 l 0.0116,-0.02908 0.005,-0.01162 c 0,-0.0058 0.005,0 0.005,0 l 0.0116,-0.01746 0.0232,-0.01746 0.0116,0.08722 v -0.0058 0.127928 l 0.0116,0.08141 c 0,0.04071 0.0116,0.06979 0.029,0.133745 l 0.0465,0.290748 c 0.0174,0.10467 0.0465,0.191896 0.0407,0.20934 0.0232,0.02908 0.0349,0.116299 0.13375,0.238413 A 0.66290697,0.66290697 0 0 0 6.5595,4.192539 l 0.0697,0.03488 0.0465,0.05234 c 0.0639,0.01163 0.0872,0 0.17443,0 0.0756,-0.0058 0.15702,-0.02908 0.23262,-0.05815 A 1.6456376,1.6456376 0 0 0 7.48988,3.988994 l 0.0348,-0.02326 c 0.0523,-0.03487 -0.005,-0.01746 0.0291,-0.05815 0.0581,-0.04652 0.0989,-0.08141 0.15119,-0.139561 0.0116,0 0.0464,-0.104668 0.0989,-0.174448 0.0581,-0.05815 0.1163,-0.139558 0.15119,-0.191893 -0.0116,0 0,-0.02326 0.0116,-0.04071 C 8.08879,3.233041 8.15274,2.779473 8.18764,2.750399 A 6.4313601,6.4313601 0 0 0 8.55398,1.907227 l 0.0174,-0.05815 0.0116,-0.05815 0.0116,-0.03487 0.0465,-0.09304 0.0175,0.354712 0.005,0.232599 -0.005,0.197709 -0.0116,0.03488 c 0.005,0.15119 0.0116,0.581498 0,0.610573 0,0.01745 0.0232,0.238412 -0.005,0.529163 L 8.61288,3.99481 V 4.01807 L 8.56068,4.0297 8.35714,4.09948 8.31064,4.12274 c -0.0232,0.01163 -0.0174,0 -0.0174,0 l -0.0697,0.03488 c -0.0349,0.01162 -0.0291,0.01746 -0.0407,0.02326 -0.0116,0.0058 0,0.02327 0,0.02327 l -0.0465,0.01163 -0.0349,0.0058 -0.0523,0.01746 c -0.0174,0 -0.0174,0.01162 -0.058,0.02908 l -0.093,0.04652 -0.058,0.02327 c -0.0348,0.01163 -0.0117,0.01163 -0.0348,0.02908 -0.0175,0.01746 0,-0.01163 -0.0175,0 l -0.058,0.01746 c -0.0116,0 -0.064,0.04071 -0.064,0.04071 l -0.0465,0.01745 c 0,0 -0.005,-0.0058 -0.0116,0 l -0.0174,0.04071 -0.0232,0.02326 h -0.0349 c 0,0.0058 -0.0407,0.01746 -0.0581,0.03487 l -0.064,0.02908 h -0.0174 c -0.0174,0 -0.0232,0.01745 -0.0349,0.02327 l -0.0465,0.03487 -0.0581,0.02908 c -0.0232,0.0058 -0.058,0.05815 -0.093,0.0756 C 7.12534,4.75662 7.08464,4.80313 7.05557,4.81476 7.03237,4.83222 6.96247,4.87291 6.93927,4.9078 6.90447,4.94851 6.86367,4.96595 6.80553,4.99503 6.74743,5.02991 6.70086,5.08226 6.60782,5.152034 c -0.0872,0.06396 -0.0697,0.05233 -0.16283,0.139561 -0.005,0.0058 -0.058,0.05815 -0.0814,0.09885 -0.0174,0.04071 -0.0116,0 -0.029,0.02908 -0.0116,0.03488 -0.0465,0.04652 -0.0872,0.08723 v -0.01162 c -0.1163,0.0756 -0.0815,0.174449 -0.20352,0.255858 h 0.0116 c -0.1163,0.110486 -0.16864,0.25586 -0.27331,0.372159 -0.0232,0.03487 -0.0116,0.04071 -0.0116,0.06978 h -0.0232 v 0.04652 c -0.0175,0.04652 -0.0407,0.116298 -0.058,0.139559 -0.0232,0.02326 -0.0407,0.06978 -0.0581,0.110485 L 5.58486,6.61161 c 0,0.02908 0.0174,0.0756 0.0232,0.0756 v 0.0058 l 0.005,0.03487 v 0.04071 h -0.0116 c 0.0175,0.116298 0.0465,0.226784 0.0989,0.331452 l 0.0523,0.10467 v 0.01745 c 0,0.0058 -0.005,0.01163 0.0116,0.04071 0.0232,0.02908 0.0581,0.0814 0.17444,0.145373 a 2.0177961,2.0177962 0 0 0 0.41286,0.10467 h 0.15121 l -0.0523,-0.0058 0.0116,-0.01162 h 0.0232 A 2.5178832,2.5178832 0 0 0 8.25301,6.774438 l -0.005,0.01746 0.029,-0.03488 c 0.0523,-0.05815 0.0639,-0.05233 0.1163,-0.110485 l 0.0116,-0.0058 c 0.10468,-0.104668 0.0756,-0.104668 0.17445,-0.197708 0.005,-0.01163 0,0 0,0.0058 l 0.0697,-0.08141 C 8.81187,6.163892 8.85258,6.018516 8.91654,5.942922 l -0.005,0.01745 c 0.0814,-0.16282 0.0756,-0.174449 0.0697,-0.174449 0,0 -0.0116,0.0058 -0.005,-0.0058 l 0.0697,-0.15119 0.0756,-0.104669 -0.005,-0.03488 c 0.0116,-0.03487 0.0407,-0.104669 0.0407,-0.08723 0.0291,-0.133745 0,-0.05815 0,-0.05815 0.0349,-0.08141 0.0407,-0.13956 0.058,-0.238415 0,0 0.0291,-0.06396 0.0291,-0.08141 l 0.005,-0.08141 0.0116,-0.1163 c 0.029,-0.02327 0.0407,-0.209339 0.0465,-0.319824 v -0.02327 c 0.0348,-0.0058 0.0581,-0.01163 0.0756,-0.02908 h 0.12212 c 0.0232,0.02326 0.0581,0.0058 0.0872,0.0058 0.0815,-0.01163 0.0815,-0.03487 0.16282,-0.04652 h -0.0116 c 0.0465,-0.03488 0.0465,0 0.0872,-0.02326 l 0.0232,0.02326 h 0.0291 a 0.29074867,0.29074868 0 0 0 0.0581,-0.01746 c 0.0116,0 0.0116,-0.0058 0.0174,-0.01162 0.0291,-0.01746 0.0465,-0.04071 0.0465,-0.05233 0,0.0058 0.0174,-0.01163 0,0 z M 5.92248,2.797018 Z M 8.51014,4.820629 C 8.45204,5.169526 8.39384,5.460274 8.26592,5.809174 8.20192,5.983623 8.09146,6.158072 7.9868,6.320892 A 1.6281927,1.6281927 0 0 1 7.59138,6.751199 c -0.0989,0.06978 -0.157,0.09885 -0.20352,0.127931 -0.0465,0.02907 -0.0815,0.04652 -0.157,0.0756 H 7.17276 C 7.08556,6.978 6.9983,6.9896 6.89944,6.9896 A 0.75594654,0.75594654 0 0 1 6.66102,6.94889 C 6.59132,6.92563 6.5331,6.89074 6.49238,6.844219 6.45748,6.797699 6.46338,6.751179 6.44588,6.693029 l -0.0232,-0.09304 -0.0174,-0.145374 0.005,-0.0756 c 0.0116,-0.01163 -0.0174,-0.03488 -0.0116,-0.04071 l 0.0232,-0.03487 c 0,-0.01746 0.029,-0.05815 0.029,-0.06396 v -0.04653 c -0.0232,-0.0058 0.005,-0.05815 0.0174,-0.09885 l 0.0697,-0.104669 h 0.005 l 0.0232,-0.05233 0.0349,-0.04652 c 0.0232,-0.03487 0.0581,-0.09886 0.093,-0.139561 0.0697,-0.04071 0.0989,-0.116297 0.11631,-0.139558 l 0.10465,-0.12793 0.0815,-0.09304 c 0.0291,-0.03487 0.058,-0.04071 0.0697,-0.06979 0.005,-0.0058 0.0291,-0.01162 0.0349,0 l 0.064,-0.05815 c 0,0 0.0174,0 0.0465,-0.02326 l 0.0406,-0.03488 0.0989,-0.05815 0.10468,-0.0756 c 0.0232,-0.01746 0.0581,-0.05233 0.0756,-0.05815 L 7.6361,4.954357 c 0.0116,0 0.005,-0.01746 0.0232,-0.02326 0.0174,-0.01163 0.029,0 0.029,0 l 0.0581,-0.02327 0.0581,-0.04652 c 0,0 0.0465,-0.01162 0.0756,-0.03487 L 7.915,4.797357 c 0,0 0.0291,0 0.0523,-0.01163 0.0291,-0.01163 0.0872,-0.02908 0.0989,-0.04071 l 0.093,-0.01163 0.0116,-0.02326 0.029,-0.01163 c 0.0232,-0.01163 -0.0116,0 0,-0.01163 0.0116,-0.0058 0.0697,0 0.093,-0.02326 l 0.0349,-0.02908 c 0.0232,-0.01746 0.0872,-0.0058 0.12211,-0.02326 a 0.23259894,0.23259894 0 0 1 0.058,-0.01163 h 0.0407 z M 34.21232,5.30327 h -0.2791 c -0.0465,0 -0.0815,0.03487 -0.0815,0.08141 v 0.284934 c 0,0.04652 0.0348,0.08141 0.0815,0.08141 h 0.2791 c 0.0465,0 0.0815,-0.03488 0.0815,-0.08141 V 5.3847 c 0,-0.04652 -0.0349,-0.08141 -0.0815,-0.08141 m 1.54099,-0.06396 c -0.0116,-0.01746 -0.0349,-0.03487 -0.0581,-0.03487 -0.0291,0 -0.0523,0 -0.0697,0.02326 0,0 -0.1512,0.162817 -0.37216,0.162817 a 0.40704814,0.40704818 0 0 1 -0.40706,-0.42447 c 0,-0.238414 0.16865,-0.412862 0.40123,-0.412862 0.19772,0 0.32565,0.133744 0.32565,0.133744 0.0174,0.01746 0.0407,0.02908 0.0639,0.02326 0.029,0 0.0465,-0.01163 0.0581,-0.03488 l 0.13375,-0.186081 c 0.0175,-0.02909 0.0175,-0.06979 -0.005,-0.09886 -0.0116,-0.0058 -0.20354,-0.232599 -0.58731,-0.232599 -0.47103,0 -0.82574,0.348898 -0.82574,0.814097 0,0.465197 0.34891,0.814095 0.82574,0.814095 0.39542,0 0.61057,-0.24423 0.61638,-0.255859 0.0232,-0.02326 0.029,-0.05815 0.0116,-0.08723 L 35.75412,5.245181 m 1.02925,-1.087399 a 0.81409641,0.81409641 0 0 0 -0.83736,0.814095 0.81409641,0.81409641 0 0 0 0.83736,0.814095 0.81409641,0.81409641 0 0 0 0.83155,-0.814095 0.81409641,0.81409641 0 0 0 -0.83155,-0.814095 z m 0,1.232773 c -0.2326,0 -0.40705,-0.180264 -0.40705,-0.424492 0,-0.2326 0.17445,-0.412864 0.40705,-0.412864 0.22678,0 0.39543,0.17445 0.39543,0.412864 0,0.244228 -0.17446,0.424492 -0.39543,0.424492 z M 39.52222,4.157782 A 0.63964716,0.63964716 0 0 0 39.03957,4.39038 c -0.0815,-0.15119 -0.23259,-0.232598 -0.44193,-0.232598 -0.15119,0 -0.29075,0.06978 -0.39542,0.162818 V 4.27408 c 0,-0.04652 -0.0407,-0.08141 -0.0815,-0.08141 h -0.26167 c -0.0407,0 -0.0815,0.03487 -0.0815,0.08141 v 1.395572 c 0,0.04652 0.0407,0.08141 0.0815,0.08141 h 0.26748 c 0.0465,0 0.0815,-0.03487 0.0815,-0.08141 V 5.030004 c 0,-0.05233 0,-0.110483 0.0116,-0.157002 0.0407,-0.145375 0.14538,-0.308194 0.32565,-0.308194 0.11048,0 0.16281,0.04071 0.16281,0.267488 v 0.837356 c 0,0.04652 0.0349,0.08141 0.0815,0.08141 h 0.26748 c 0.0407,0 0.0756,-0.03487 0.0756,-0.08141 V 5.030004 c 0,-0.06978 0.005,-0.122114 0.0175,-0.174448 0.0407,-0.145374 0.15118,-0.290748 0.31401,-0.290748 0.11628,0 0.17444,0.04071 0.17444,0.267488 v 0.837356 c 0,0.04652 0.0291,0.08141 0.0756,0.08141 h 0.26749 c 0.0465,0 0.0815,-0.03487 0.0815,-0.08141 V 4.774149 c 0,-0.505903 -0.29075,-0.616387 -0.5408,-0.616387"
     fill="#ffffff"
     id="path10"
     style="stroke-width:0.0581497" />
</svg>
