<?xml version="1.0" encoding="UTF-8" standalone="no"?>
<!-- Generator: Adobe Illustrator 18.1.1, SVG Export Plug-In . SVG Version: 6.00 Build 0)  -->

<svg
   version="1.1"
   id="Capa_1"
   x="0px"
   y="0px"
   viewBox="0 0 32.000001 32.000001"
   xml:space="preserve"
   sodipodi:docname="rubberring.svg"
   width="32"
   height="32"
   inkscape:version="1.2.1 (9c6d41e410, 2022-07-14)"
   xmlns:inkscape="http://www.inkscape.org/namespaces/inkscape"
   xmlns:sodipodi="http://sodipodi.sourceforge.net/DTD/sodipodi-0.dtd"
   xmlns="http://www.w3.org/2000/svg"
   xmlns:svg="http://www.w3.org/2000/svg"><defs
   id="defs2029" /><sodipodi:namedview
   id="namedview2027"
   pagecolor="#ffffff"
   bordercolor="#fff"
   borderopacity="1"
   inkscape:showpageshadow="0"
   inkscape:pageopacity="0"
   inkscape:pagecheckerboard="1"
   inkscape:deskcolor="#d1d1d1"
   showgrid="false"
   inkscape:zoom="26.626044"
   inkscape:cx="15.079221"
   inkscape:cy="12.112201"
   inkscape:window-width="1920"
   inkscape:window-height="991"
   inkscape:window-x="-9"
   inkscape:window-y="-9"
   inkscape:window-maximized="1"
   inkscape:current-layer="Capa_1" />
<g
   id="g1994"
   transform="matrix(1.0633349,0,0,1.059743,-0.05423008,0)">
	<path
   style="fill:#fff"
   d="m 15.098,8.182 c 1.188,0 2.305,0.301 3.283,0.828 L 22.956,2.227 C 20.666,0.822 17.982,0 15.098,0 12.256,0 9.607,0.801 7.337,2.166 l 4.917,6.633 c 0.869,-0.393 1.828,-0.617 2.844,-0.617 z"
   id="path1982" />
	<path
   style="fill:#fff"
   d="m 20.297,19.648 4.918,6.631 c 2.731,-2.471 4.559,-5.918 4.91,-9.803 h -8.25 c -0.242,1.2 -0.801,2.284 -1.578,3.172 z"
   id="path1984" />
	<path
   style="fill:#fff"
   d="m 21.934,14.098 h 8.211 C 29.87,9.907 27.895,6.184 24.889,3.618 l -4.64,6.879 c 0.884,0.985 1.484,2.226 1.685,3.601 z"
   id="path1986" />
	<path
   style="fill:#fff"
   d="M 8.32,16.477 H 0.071 c 0.398,4.396 2.683,8.234 6.037,10.73 L 10.684,20.42 C 9.493,19.432 8.639,18.051 8.32,16.477 Z"
   id="path1988" />
	<path
   style="fill:#fff"
   d="M 10.283,10.137 5.392,3.541 C 2.338,6.107 0.329,9.863 0.051,14.098 h 8.211 c 0.226,-1.545 0.954,-2.924 2.021,-3.961 z"
   id="path1990" />
	<path
   style="fill:#fff"
   d="m 15.098,22.014 c -0.822,0 -1.607,-0.15 -2.339,-0.414 L 8.12,28.477 c 2.088,1.092 4.458,1.719 6.978,1.719 3.041,0 5.867,-0.906 8.237,-2.453 l -4.89,-6.596 c -0.992,0.55 -2.132,0.867 -3.347,0.867 z"
   id="path1992" />
</g>
<g
   id="g1996"
   transform="translate(-0.051)">
</g>
<g
   id="g1998"
   transform="translate(-0.051)">
</g>
<g
   id="g2000"
   transform="translate(-0.051)">
</g>
<g
   id="g2002"
   transform="translate(-0.051)">
</g>
<g
   id="g2004"
   transform="translate(-0.051)">
</g>
<g
   id="g2006"
   transform="translate(-0.051)">
</g>
<g
   id="g2008"
   transform="translate(-0.051)">
</g>
<g
   id="g2010"
   transform="translate(-0.051)">
</g>
<g
   id="g2012"
   transform="translate(-0.051)">
</g>
<g
   id="g2014"
   transform="translate(-0.051)">
</g>
<g
   id="g2016"
   transform="translate(-0.051)">
</g>
<g
   id="g2018"
   transform="translate(-0.051)">
</g>
<g
   id="g2020"
   transform="translate(-0.051)">
</g>
<g
   id="g2022"
   transform="translate(-0.051)">
</g>
<g
   id="g2024"
   transform="translate(-0.051)">
</g>
</svg>
