<?xml version="1.0" encoding="UTF-8" standalone="no"?>
<!-- Generator: Adobe Illustrator 19.0.0, SVG Export Plug-In . SVG Version: 6.00 Build 0)  -->

<svg
fill="#FFD700"
   version="1.1"
   id="Capa_1"
   x="0px"
   y="0px"
   viewBox="0 0 73.546379 14.644735"
   xml:space="preserve"
   sodipodi:docname="stars.svg"
   width="73.546379"
   height="14.644735"
   inkscape:version="1.2.1 (9c6d41e410, 2022-07-14)"
   xmlns:inkscape="http://www.inkscape.org/namespaces/inkscape"
   xmlns:sodipodi="http://sodipodi.sourceforge.net/DTD/sodipodi-0.dtd"
   xmlns="http://www.w3.org/2000/svg"
   xmlns:svg="http://www.w3.org/2000/svg"><defs
   id="defs94" /><sodipodi:namedview
   id="namedview92"
   pagecolor="#ffffff"
   bordercolor="#111111"
   borderopacity="1"
   inkscape:showpageshadow="0"
   inkscape:pageopacity="0"
   inkscape:pagecheckerboard="1"
   inkscape:deskcolor="#d1d1d1"
   showgrid="false"
   inkscape:zoom="1.6408163"
   inkscape:cx="23.768657"
   inkscape:cy="56.374378"
   inkscape:window-width="1920"
   inkscape:window-height="991"
   inkscape:window-x="-9"
   inkscape:window-y="-9"
   inkscape:window-maximized="1"
   inkscape:current-layer="Capa_1" />
<g
   id="g59"
   transform="matrix(0.15009465,0,0,0.15009465,0,-29.450822)">
	<polygon
   points="60.44,233.482 48.895,196.215 37.351,233.482 0,233.482 30.22,256.513 18.676,293.785 48.895,270.744 79.115,293.785 67.571,256.513 97.791,233.482 "
   id="polygon49" />
	<polygon
   points="158.492,233.482 146.948,196.215 135.403,233.482 98.052,233.482 128.272,256.513 116.728,293.785 146.948,270.744 177.168,293.785 165.623,256.513 195.843,233.482 "
   id="polygon51" />
	<polygon
   points="256.544,233.482 245,196.215 233.456,233.482 196.104,233.482 226.324,256.513 214.78,293.785 245,270.744 275.22,293.785 263.676,256.513 293.895,233.482 "
   id="polygon53" />
	<polygon
   points="354.596,233.482 343.052,196.215 331.508,233.482 294.157,233.482 324.377,256.513 312.832,293.785 343.052,270.744 373.272,293.785 361.728,256.513 391.948,233.482 "
   id="polygon55" />
	<polygon
   points="441.105,196.215 429.56,233.482 392.209,233.482 422.429,256.513 410.885,293.785 441.105,270.744 471.324,293.785 459.78,256.513 490,233.482 452.649,233.482 "
   id="polygon57" />
</g>
<g
   id="g61"
   transform="translate(-208.22679,-237.67762)">
</g>
<g
   id="g63"
   transform="translate(-208.22679,-237.67762)">
</g>
<g
   id="g65"
   transform="translate(-208.22679,-237.67762)">
</g>
<g
   id="g67"
   transform="translate(-208.22679,-237.67762)">
</g>
<g
   id="g69"
   transform="translate(-208.22679,-237.67762)">
</g>
<g
   id="g71"
   transform="translate(-208.22679,-237.67762)">
</g>
<g
   id="g73"
   transform="translate(-208.22679,-237.67762)">
</g>
<g
   id="g75"
   transform="translate(-208.22679,-237.67762)">
</g>
<g
   id="g77"
   transform="translate(-208.22679,-237.67762)">
</g>
<g
   id="g79"
   transform="translate(-208.22679,-237.67762)">
</g>
<g
   id="g81"
   transform="translate(-208.22679,-237.67762)">
</g>
<g
   id="g83"
   transform="translate(-208.22679,-237.67762)">
</g>
<g
   id="g85"
   transform="translate(-208.22679,-237.67762)">
</g>
<g
   id="g87"
   transform="translate(-208.22679,-237.67762)">
</g>
<g
   id="g89"
   transform="translate(-208.22679,-237.67762)">
</g>
</svg>
