<?xml version="1.0" encoding="UTF-8" standalone="no"?>
<!-- Generator: Adobe Illustrator 18.0.0, SVG Export Plug-In . SVG Version: 6.00 Build 0)  -->

<svg
   version="1.1"
   id="Capa_1"
   x="0px"
   y="0px"
   fill="#fff"
   viewBox="0 0 16 16"
   xml:space="preserve"
   sodipodi:docname="strength.svg"
   width="16"
   height="16"
   inkscape:version="1.2.1 (9c6d41e410, 2022-07-14)"
   xmlns:inkscape="http://www.inkscape.org/namespaces/inkscape"
   xmlns:sodipodi="http://sodipodi.sourceforge.net/DTD/sodipodi-0.dtd"
   xmlns="http://www.w3.org/2000/svg"
   xmlns:svg="http://www.w3.org/2000/svg"><defs
   id="defs3505" /><sodipodi:namedview
   id="namedview3503"
   pagecolor="#ffffff"
   bordercolor="#111111"
   borderopacity="1"
   inkscape:showpageshadow="0"
   inkscape:pageopacity="0"
   inkscape:pagecheckerboard="1"
   inkscape:deskcolor="#d1d1d1"
   showgrid="false"
   inkscape:zoom="30.628571"
   inkscape:cx="6.7420709"
   inkscape:cy="8.1133396"
   inkscape:window-width="1920"
   inkscape:window-height="991"
   inkscape:window-x="-9"
   inkscape:window-y="-9"
   inkscape:window-maximized="1"
   inkscape:current-layer="Capa_1" />
<path
   d="M 0.35782719,12.702504 1.114929,13.459611 0.32011305,14.254395 c -0.13828518,0.138286 -0.13828518,0.362553 0,0.500801 l 0.92456785,0.924613 c 0.066438,0.06644 0.1564946,0.103771 0.2504371,0.103771 0.093943,0 0.1839993,-0.03733 0.2504371,-0.103771 l 0.794816,-0.794822 0.757178,0.757183 c 0.477141,0.477145 1.2506238,0.477068 1.7276124,0 0.3086845,-0.308648 0.4173317,-0.741335 0.326513,-1.137603 l 0.3664367,0.366439 c 0.7449114,0.744879 1.9519924,0.744726 2.6966372,0 0.744759,-0.744688 0.7449495,-1.951853 1.143e-4,-2.696617 L 6.8329259,10.592441 10.592454,6.8329251 12.174353,8.4147965 c 0.744797,0.7448784 1.951992,0.7446498 2.696789,-1.524e-4 0.744569,-0.7445356 0.744759,-1.9517773 -3.8e-5,-2.6965033 L 14.504591,5.3516254 c 0.396266,0.090819 0.82895,-0.017867 1.137596,-0.3265152 0.476989,-0.4769538 0.477179,-1.2504037 0,-1.7277004 L 14.885009,2.5402647 15.679787,1.7454814 c 0.138285,-0.1382862 0.138285,-0.3625535 0,-0.5008015 l -0.92453,-0.92457419 c -0.138323,-0.13832422 -0.362551,-0.13832422 -0.500836,0 L 13.459643,1.114889 12.702427,0.35774392 c -0.477103,-0.47702999 -1.250662,-0.4769538 -1.727612,0 C 10.66613,0.66639246 10.557445,1.0990414 10.648264,1.4953473 L 10.281903,1.1289843 C 9.5373345,0.38433447 8.3297582,0.38418209 7.5851516,1.1287176 c -0.7447209,0.7448022 -0.7445686,1.9523487 0,2.6968842 L 9.1670121,5.4074732 5.4074838,9.1670273 3.8256995,7.585194 c -0.7445686,-0.7446498 -1.9521068,-0.7448022 -2.6969039,0 -0.7446066,0.7445736 -0.74441613,1.9521582 1.905e-4,2.696656 l 0.3665129,0.366515 c -0.3962652,-0.09082 -0.82898729,0.01783 -1.13767181,0.326439 -0.47706482,0.47703 -0.47714101,1.250518 0,1.7277 z"
   id="path3470"
   style="stroke-width:0.0380953" />
<g
   id="g3472"
   transform="translate(1.6820329e-8,-0.00124999)">
</g>
<g
   id="g3474"
   transform="translate(1.6820329e-8,-0.00124999)">
</g>
<g
   id="g3476"
   transform="translate(1.6820329e-8,-0.00124999)">
</g>
<g
   id="g3478"
   transform="translate(1.6820329e-8,-0.00124999)">
</g>
<g
   id="g3480"
   transform="translate(1.6820329e-8,-0.00124999)">
</g>
<g
   id="g3482"
   transform="translate(1.6820329e-8,-0.00124999)">
</g>
<g
   id="g3484"
   transform="translate(1.6820329e-8,-0.00124999)">
</g>
<g
   id="g3486"
   transform="translate(1.6820329e-8,-0.00124999)">
</g>
<g
   id="g3488"
   transform="translate(1.6820329e-8,-0.00124999)">
</g>
<g
   id="g3490"
   transform="translate(1.6820329e-8,-0.00124999)">
</g>
<g
   id="g3492"
   transform="translate(1.6820329e-8,-0.00124999)">
</g>
<g
   id="g3494"
   transform="translate(1.6820329e-8,-0.00124999)">
</g>
<g
   id="g3496"
   transform="translate(1.6820329e-8,-0.00124999)">
</g>
<g
   id="g3498"
   transform="translate(1.6820329e-8,-0.00124999)">
</g>
<g
   id="g3500"
   transform="translate(1.6820329e-8,-0.00124999)">
</g>
</svg>
