<?xml version="1.0" encoding="UTF-8" standalone="no"?>
<!-- Generator: Adobe Illustrator 19.0.0, SVG Export Plug-In . SVG Version: 6.00 Build 0)  -->

<svg
fill="#fff"
   version="1.1"
   id="Layer_1"
   x="0px"
   y="0px"
   viewBox="0 0 15.49125 16.584749"
   xml:space="preserve"
   sodipodi:docname="timeless.svg"
   width="15.49125"
   height="16.584749"
   inkscape:version="1.2.1 (9c6d41e410, 2022-07-14)"
   xmlns:inkscape="http://www.inkscape.org/namespaces/inkscape"
   xmlns:sodipodi="http://sodipodi.sourceforge.net/DTD/sodipodi-0.dtd"
   xmlns="http://www.w3.org/2000/svg"
   xmlns:svg="http://www.w3.org/2000/svg"><defs
   id="defs4107" /><sodipodi:namedview
   id="namedview4105"
   pagecolor="#ffffff"
   bordercolor="#111111"
   borderopacity="1"
   inkscape:showpageshadow="0"
   inkscape:pageopacity="0"
   inkscape:pagecheckerboard="1"
   inkscape:deskcolor="#d1d1d1"
   showgrid="false"
   inkscape:zoom="28.272527"
   inkscape:cx="8.6833411"
   inkscape:cy="9.2138915"
   inkscape:window-width="1920"
   inkscape:window-height="991"
   inkscape:window-x="-9"
   inkscape:window-y="-9"
   inkscape:window-maximized="1"
   inkscape:current-layer="Layer_1" />
<path
   d="M 13.4865,2.9988508 V 1.0935 h 2.00475 V 0 H 13.4865 2.00475 0 v 1.0935 h 2.00475 v 1.9053508 c 0,2.3674275 1.4331776,4.3998792 3.4791525,5.2778142 v 0.03149 C 3.4379276,9.186055 2.00475,11.218471 2.00475,13.585898 v 1.905351 H 0 v 1.0935 h 2.00475 11.48175 2.00475 v -1.0935 H 13.4865 v -1.905351 c 0,-2.367427 -1.433178,-4.39988 -3.479152,-5.277778 V 8.27663 C 12.053322,7.398694 13.4865,5.3662783 13.4865,2.9988508 Z"
   id="path4072"
   style="stroke-width:0.03645" />
<g
   id="g4074"
   transform="translate(-219.75437,-219.20762)">
</g>
<g
   id="g4076"
   transform="translate(-219.75437,-219.20762)">
</g>
<g
   id="g4078"
   transform="translate(-219.75437,-219.20762)">
</g>
<g
   id="g4080"
   transform="translate(-219.75437,-219.20762)">
</g>
<g
   id="g4082"
   transform="translate(-219.75437,-219.20762)">
</g>
<g
   id="g4084"
   transform="translate(-219.75437,-219.20762)">
</g>
<g
   id="g4086"
   transform="translate(-219.75437,-219.20762)">
</g>
<g
   id="g4088"
   transform="translate(-219.75437,-219.20762)">
</g>
<g
   id="g4090"
   transform="translate(-219.75437,-219.20762)">
</g>
<g
   id="g4092"
   transform="translate(-219.75437,-219.20762)">
</g>
<g
   id="g4094"
   transform="translate(-219.75437,-219.20762)">
</g>
<g
   id="g4096"
   transform="translate(-219.75437,-219.20762)">
</g>
<g
   id="g4098"
   transform="translate(-219.75437,-219.20762)">
</g>
<g
   id="g4100"
   transform="translate(-219.75437,-219.20762)">
</g>
<g
   id="g4102"
   transform="translate(-219.75437,-219.20762)">
</g>
</svg>
