<?xml version="1.0" standalone="no"?>
<!DOCTYPE svg PUBLIC "-//W3C//DTD SVG 20010904//EN"
 "http://www.w3.org/TR/2001/REC-SVG-20010904/DTD/svg10.dtd">
<svg version="1.0" xmlns="http://www.w3.org/2000/svg"
 width="608.000000pt" height="608.000000pt" viewBox="0 0 608.000000 608.000000"
 preserveAspectRatio="xMidYMid meet">
<metadata>
Created by potrace 1.14, written by Peter Selinger 2001-2017
</metadata>
<g transform="translate(0.000000,608.000000) scale(0.100000,-0.100000)"
fill="#000000" stroke="none">
<path d="M3094 4206 c1 -1125 5 -1872 10 -1869 5 4 6 1 1 -6 -4 -7 -8 -31 -9
-54 -3 -39 7 -59 29 -64 29 -7 146 -50 152 -56 3 -4 17 -7 30 -7 12 0 23 -4
23 -8 0 -5 6 -9 13 -10 30 -2 62 -13 65 -22 2 -6 8 -7 13 -4 6 3 16 0 24 -6 8
-7 15 -9 15 -5 0 4 7 2 15 -5 8 -7 15 -9 15 -5 0 4 6 3 13 -2 6 -5 46 -20 87
-33 41 -14 78 -28 81 -33 3 -4 10 -7 15 -6 16 4 64 -13 64 -22 0 -5 7 -6 15
-3 8 4 15 2 15 -4 0 -6 8 -9 18 -8 9 2 26 -3 38 -11 11 -7 24 -10 27 -6 4 3 7
2 7 -4 0 -5 6 -10 13 -10 15 0 119 -35 127 -43 3 -3 13 -6 24 -8 10 -2 30 -8
45 -14 14 -6 32 -10 39 -9 6 1 12 -3 12 -9 0 -5 3 -9 8 -8 4 1 32 -6 62 -17
30 -10 60 -20 66 -21 5 -1 29 -11 52 -22 23 -11 39 -16 36 -10 -4 5 4 4 17 -3
13 -7 26 -14 29 -15 3 0 13 -4 23 -7 9 -4 25 -10 35 -14 9 -3 20 -7 25 -8 4
-2 9 -4 12 -5 3 -1 9 -3 14 -4 5 0 13 -4 17 -8 4 -5 18 -8 30 -8 13 0 25 -4
28 -8 3 -4 28 -14 56 -22 28 -8 53 -18 56 -22 3 -4 16 -8 29 -8 13 0 27 -5 30
-10 3 -5 15 -10 26 -10 10 0 27 -4 37 -9 45 -23 69 -32 90 -34 12 0 22 -5 22
-9 0 -4 11 -8 25 -8 14 0 25 -4 25 -9 0 -5 7 -12 16 -15 10 -4 13 -2 7 7 -4 6
6 4 21 -7 18 -11 25 -13 21 -5 -5 8 0 7 11 -3 10 -9 21 -17 24 -17 3 0 16 -4
30 -9 32 -12 93 -26 103 -24 4 1 7 -2 7 -7 0 -8 22 -18 61 -27 9 -2 29 -9 45
-15 16 -7 33 -11 38 -10 4 1 13 -2 20 -7 12 -10 84 -36 101 -37 6 -1 21 -7 35
-15 14 -7 27 -13 30 -13 3 0 16 -4 30 -9 14 -6 32 -11 40 -13 8 -2 16 -4 18
-5 1 -2 7 -4 12 -5 6 -1 11 -3 13 -5 1 -1 11 -3 21 -5 10 -2 22 -8 25 -13 3
-5 14 -8 24 -6 9 1 17 -3 17 -9 0 -5 3 -7 7 -4 3 4 12 2 20 -4 7 -6 13 -8 13
-4 0 4 7 2 15 -5 8 -7 15 -9 15 -5 0 4 7 2 15 -5 8 -6 19 -9 25 -5 5 3 10 2
10 -3 0 -6 7 -13 16 -16 9 -3 12 -2 8 5 -5 9 33 -8 46 -21 3 -3 15 -6 28 -7
l22 -3 0 1895 0 1895 -27 11 c-16 6 -32 12 -38 13 -5 1 -20 7 -32 14 -12 7
-31 12 -42 12 -12 0 -21 5 -21 10 0 6 -8 10 -18 10 -10 0 -22 3 -26 7 -3 4
-16 8 -28 10 -12 2 -26 9 -30 16 -4 6 -8 9 -8 4 0 -4 -13 -1 -29 7 -16 9 -31
12 -35 9 -3 -4 -6 -1 -6 6 0 7 -4 10 -10 6 -5 -3 -17 -2 -27 3 -40 21 -99 45
-113 48 -26 4 -85 29 -92 39 -4 6 -8 7 -8 3 0 -4 -20 1 -45 12 -25 11 -45 17
-45 13 0 -3 -6 0 -13 6 -8 6 -17 8 -20 4 -4 -3 -7 -1 -7 6 0 7 -4 10 -9 6 -5
-3 -12 -2 -15 3 -2 4 -28 14 -55 22 -28 7 -51 18 -51 23 0 6 -3 7 -7 4 -3 -4
-12 -2 -20 4 -7 6 -13 9 -13 5 0 -4 -17 2 -39 13 -21 11 -41 17 -45 14 -3 -4
-6 -1 -6 5 0 6 -7 9 -15 6 -8 -4 -15 -1 -15 5 0 6 -3 10 -7 9 -13 -3 -98 25
-104 35 -3 5 -9 8 -13 8 -6 -1 -9 -1 -23 4 -8 2 -13 4 -58 21 -11 4 -22 8 -25
9 -3 1 -18 7 -35 14 -16 7 -38 13 -47 14 -10 1 -18 5 -18 9 0 4 -9 8 -19 8
-11 0 -23 5 -26 10 -4 6 -10 8 -15 5 -5 -3 -11 -1 -15 5 -4 6 -11 8 -16 5 -5
-4 -9 -1 -9 5 0 7 -7 10 -15 6 -8 -3 -15 -1 -15 5 0 6 -4 8 -9 4 -5 -3 -12 -1
-16 5 -3 5 -15 10 -26 10 -10 0 -19 4 -19 10 0 5 -3 9 -7 8 -16 -4 -73 14 -73
23 0 5 -3 8 -7 8 -15 -3 -73 14 -73 20 0 4 -12 8 -27 9 -16 1 -29 7 -31 12 -2
6 -12 10 -23 10 -10 0 -19 5 -19 11 0 5 -5 7 -10 4 -6 -4 -16 -2 -23 3 -7 6
-15 10 -20 10 -10 1 -97 31 -117 42 -9 4 -30 11 -48 15 -18 4 -29 11 -26 17 4
6 -1 8 -15 3 -13 -4 -21 -2 -21 5 0 6 -4 8 -10 5 -5 -3 -10 -1 -10 6 0 7 -3
10 -6 6 -6 -5 -45 7 -109 34 -16 6 -34 13 -40 15 -5 1 -41 15 -80 29 -38 15
-80 30 -93 32 -12 3 -25 9 -28 14 -3 5 -14 9 -25 9 -10 0 -19 5 -19 11 0 5 -5
7 -10 4 -6 -4 -18 -1 -27 7 -9 7 -17 11 -17 9 -1 -2 -17 3 -36 11 -19 8 -56
21 -82 28 -27 8 -48 18 -48 22 0 4 -11 8 -24 8 -13 0 -29 7 -36 15 -7 8 -16
13 -20 10 -4 -3 -24 2 -44 10 -19 8 -39 15 -44 15 -5 0 -8 -836 -8 -1874z
m251 1054 c42 -17 60 -23 68 -22 4 1 7 -3 7 -9 0 -6 7 -9 15 -5 8 3 15 2 15
-2 0 -10 60 -45 60 -35 0 4 4 4 8 -2 11 -15 145 -79 160 -76 6 1 12 -3 12 -9
0 -6 4 -9 9 -6 4 3 16 -1 27 -8 10 -8 25 -11 33 -8 10 4 12 1 6 -8 -5 -8 -4
-11 2 -7 6 4 43 -6 82 -23 39 -16 71 -26 71 -23 0 3 7 0 15 -7 8 -7 15 -9 15
-6 0 4 7 1 15 -8 9 -8 22 -13 30 -10 8 4 15 1 15 -6 0 -7 7 -10 15 -6 8 3 15
1 15 -4 0 -6 3 -9 8 -8 4 0 16 -2 27 -6 11 -4 34 -12 50 -18 17 -5 39 -14 50
-18 17 -7 163 -45 206 -54 8 -2 22 -6 32 -11 10 -4 20 -5 23 -2 4 3 11 1 18
-4 6 -6 25 -18 42 -28 28 -17 43 -51 23 -51 -5 0 -6 -6 -3 -14 7 -18 -34 -43
-68 -42 -15 1 -30 -4 -32 -11 -3 -7 -1 -13 3 -13 5 0 8 -11 6 -25 -1 -14 2
-28 7 -31 4 -3 6 -10 3 -15 -4 -5 -2 -9 4 -9 5 0 8 -9 6 -20 -2 -11 -1 -20 4
-20 4 0 8 -10 9 -22 4 -53 7 -73 14 -78 4 -3 10 -17 12 -30 2 -14 5 -26 7 -27
1 -2 2 -11 4 -20 1 -10 4 -25 7 -33 8 -24 30 -113 33 -137 2 -12 7 -28 11 -35
5 -7 9 -20 9 -28 0 -8 3 -20 7 -26 4 -6 9 -25 10 -43 1 -19 8 -31 17 -31 8 0
12 3 9 6 -4 3 0 17 7 31 7 14 12 34 10 44 -2 11 -1 19 3 19 4 0 9 14 10 32 2
18 8 36 15 40 9 6 9 8 -2 8 -10 0 -11 3 -3 13 6 7 13 28 16 47 2 19 7 45 9 57
3 11 9 42 12 67 4 25 12 46 19 46 6 0 4 5 -4 10 -8 5 -10 10 -4 10 7 0 12 12
12 28 0 15 3 39 6 54 5 24 1 31 -33 52 -90 57 -118 162 -39 149 17 -2 43 -10
57 -15 14 -6 29 -11 34 -10 4 1 7 -3 7 -10 0 -6 3 -9 6 -5 3 3 23 -5 44 -18
21 -13 40 -22 42 -19 3 2 11 -2 18 -11 7 -8 21 -15 31 -15 11 0 19 -4 19 -8 0
-5 19 -17 43 -27 23 -9 53 -22 67 -28 14 -6 28 -11 33 -13 4 -1 9 -3 12 -4 3
-1 8 -3 13 -5 4 -1 21 -5 37 -10 17 -4 39 -14 50 -21 11 -7 22 -13 25 -13 6 0
28 -6 55 -17 11 -4 23 -8 28 -9 4 -2 9 -4 12 -5 3 -1 9 -3 14 -4 5 0 13 -4 17
-8 4 -5 15 -8 24 -8 10 0 23 -7 30 -15 7 -8 16 -12 22 -9 5 3 25 -2 45 -11 19
-10 41 -18 47 -19 6 -1 17 -5 24 -10 7 -4 16 -5 19 -2 3 3 12 1 20 -5 7 -6 13
-9 13 -6 0 3 21 -1 46 -9 26 -7 50 -11 55 -8 5 3 9 1 9 -4 0 -6 9 -8 20 -5 11
3 20 1 20 -4 0 -5 6 -10 13 -10 26 -1 42 -9 59 -30 40 -48 6 -92 -68 -88 -27
1 -58 5 -69 8 -74 19 -73 19 -86 -5 -7 -12 -12 -26 -11 -30 1 -5 -2 -8 -8 -8
-6 0 -9 -3 -8 -7 1 -8 -3 -21 -30 -83 -8 -19 -16 -42 -18 -50 -2 -8 -7 -16
-13 -18 -5 -2 -8 -9 -5 -17 3 -7 1 -16 -5 -20 -6 -3 -11 -15 -11 -26 0 -10 -5
-19 -12 -19 -6 0 -9 -3 -5 -6 8 -8 -13 -64 -25 -64 -5 0 -6 -4 -3 -10 3 -5 -1
-23 -10 -40 -8 -16 -15 -31 -14 -32 0 -2 -5 -16 -11 -33 -7 -16 -13 -34 -14
-40 -1 -5 -4 -14 -7 -20 -10 -17 -33 -90 -31 -97 1 -5 -3 -8 -8 -8 -6 0 -10
-6 -9 -12 1 -7 -6 -33 -17 -58 -10 -25 -18 -48 -16 -52 1 -5 -2 -8 -6 -8 -4 0
-8 -10 -9 -22 -1 -11 -6 -24 -11 -27 -5 -3 -9 -13 -10 -21 -2 -26 -27 -90 -35
-90 -5 0 -6 -4 -3 -9 3 -5 -1 -22 -9 -37 -8 -16 -15 -37 -15 -47 0 -11 -4 -15
-12 -11 -7 4 -8 3 -4 -4 4 -7 -2 -32 -13 -56 -10 -25 -17 -47 -13 -50 3 -3 0
-6 -7 -6 -7 0 -10 -4 -6 -10 3 -5 1 -17 -4 -27 -22 -42 -50 -126 -45 -134 3
-5 1 -9 -4 -9 -9 0 -19 -23 -28 -64 -3 -11 -9 -25 -15 -33 -6 -7 -9 -13 -6
-13 3 0 0 -12 -8 -26 -7 -15 -11 -33 -8 -42 4 -10 2 -13 -5 -8 -7 4 -12 1 -12
-9 0 -8 -14 -53 -32 -98 -17 -45 -31 -88 -31 -94 0 -7 -4 -13 -9 -13 -4 0 -7
-3 -6 -7 1 -5 -4 -21 -10 -36 -7 -16 -12 -33 -12 -38 0 -14 -32 -62 -50 -76
-19 -14 -50 1 -57 28 -3 10 -9 19 -12 19 -4 0 -8 6 -9 13 -1 14 -10 52 -12 52
-1 0 -6 17 -13 48 -1 6 -5 17 -8 22 -4 6 -5 18 -4 28 2 9 -1 17 -5 17 -5 0 -7
9 -5 20 2 11 0 20 -4 20 -4 0 -8 6 -9 13 0 6 -3 22 -6 35 -3 12 -9 32 -12 45
-3 12 -7 32 -9 44 -2 12 -7 28 -11 35 -5 7 -7 21 -6 31 2 9 -1 17 -5 17 -5 0
-10 8 -11 18 -2 20 -10 56 -12 60 -2 1 -4 7 -5 12 -1 6 -3 11 -5 13 -1 1 -3
11 -5 22 -2 11 -8 38 -14 59 -5 22 -8 43 -5 47 2 4 0 9 -6 11 -5 1 -11 15 -12
31 -1 15 -6 27 -10 27 -4 0 -7 8 -8 18 -2 53 -6 72 -12 72 -5 0 -8 11 -8 24 0
14 -5 28 -11 31 -6 4 -8 13 -5 21 3 8 1 14 -5 14 -6 0 -13 -9 -16 -20 -3 -11
-8 -20 -12 -20 -4 0 -7 -8 -8 -17 -1 -21 -29 -100 -44 -127 -6 -10 -12 -26
-14 -35 -7 -33 -50 -146 -57 -149 -4 -2 -4 -10 -1 -18 3 -8 0 -14 -7 -14 -7 0
-10 -7 -6 -15 3 -8 1 -15 -4 -15 -6 0 -9 -3 -9 -7 1 -5 0 -11 -1 -15 -1 -5 -3
-11 -4 -15 -1 -5 -7 -18 -14 -30 -7 -13 -10 -23 -6 -23 3 0 1 -6 -5 -13 -6 -8
-8 -17 -4 -20 3 -4 0 -7 -7 -7 -7 0 -11 -3 -8 -6 7 -6 -35 -117 -57 -150 -9
-14 -23 -23 -34 -21 -22 3 -53 32 -44 41 4 3 1 6 -5 6 -7 0 -12 11 -12 25 0
14 -4 25 -8 25 -5 0 -9 6 -9 13 -1 26 -14 81 -24 98 -5 11 -7 19 -4 19 3 0 1
9 -5 19 -5 11 -12 32 -14 48 -2 15 -7 36 -10 45 -4 9 -9 25 -11 35 -2 10 -4
18 -5 18 -2 0 -10 35 -13 60 -2 12 -6 25 -10 31 -3 6 -8 21 -10 35 -3 13 -11
44 -18 69 -7 25 -13 48 -15 53 -1 4 -2 8 -4 10 -1 1 -3 11 -5 22 -3 11 -7 34
-10 50 -3 17 -7 36 -7 43 -1 6 -5 12 -10 12 -5 0 -7 4 -3 9 3 5 1 12 -5 16 -6
4 -8 11 -5 16 4 5 3 15 -1 21 -5 7 -9 21 -11 30 -2 10 -4 26 -6 36 -2 9 -6 22
-10 29 -4 6 -8 23 -9 37 -1 14 -6 26 -11 26 -5 0 -7 6 -4 13 2 6 -2 27 -9 45
-7 17 -10 32 -7 32 3 0 1 6 -4 13 -5 6 -8 22 -7 35 0 12 -3 22 -9 22 -5 0 -7
9 -4 19 3 12 -1 22 -10 25 -8 3 -12 10 -9 15 5 8 -36 184 -51 221 -3 8 -5 18
-5 23 1 4 -4 22 -11 40 -8 17 -12 38 -10 45 3 6 0 12 -7 12 -6 0 -9 3 -6 8 2
4 -2 32 -11 62 -8 30 -19 71 -24 90 -5 19 -12 44 -15 55 -3 11 -6 26 -6 33 -1
6 -6 12 -11 12 -5 0 -4 6 2 14 8 10 9 15 1 18 -6 2 -12 14 -14 28 -2 14 -6 32
-8 40 -16 44 -29 98 -31 118 -1 12 -4 22 -7 22 -7 0 -7 2 -14 59 -2 18 -8 36
-13 40 -8 6 -11 19 -18 72 -1 14 -8 36 -14 48 -7 11 -9 21 -6 21 4 0 3 6 -1
12 -5 7 -9 19 -10 28 -6 40 -23 92 -35 106 -14 17 -90 59 -101 56 -5 -1 -8 3
-8 8 0 6 -7 10 -15 10 -8 0 -15 5 -15 12 0 6 -3 9 -6 6 -7 -8 -54 36 -54 51 0
6 -5 11 -11 11 -6 0 -9 12 -7 28 2 15 8 26 16 25 6 -2 12 1 12 6 0 10 31 5 65
-9z"/>
<path d="M3799 4917 c6 -8 8 -17 4 -20 -3 -4 -1 -7 5 -7 6 0 9 -9 7 -20 -2
-11 0 -20 4 -20 5 0 7 -10 7 -22 -1 -13 2 -29 7 -35 5 -7 6 -13 3 -13 -4 0 -2
-8 3 -19 6 -10 13 -31 16 -47 14 -76 17 -88 23 -98 3 -6 7 -15 8 -21 1 -5 5
-24 8 -42 3 -18 10 -43 16 -57 5 -15 7 -26 4 -26 -4 0 -1 -7 6 -15 6 -8 9 -19
6 -24 -4 -5 -2 -12 3 -16 5 -3 8 -14 6 -25 -2 -11 0 -20 4 -20 5 0 12 -17 15
-37 8 -47 14 -76 17 -83 1 -3 3 -9 4 -15 1 -5 5 -17 8 -25 7 -19 18 -69 20
-92 1 -10 5 -18 10 -18 5 0 7 -6 4 -12 -2 -7 2 -30 9 -50 7 -21 11 -38 7 -38
-3 0 -1 -6 5 -12 6 -7 11 -16 11 -20 1 -5 2 -9 2 -10 1 -2 2 -14 3 -28 1 -14
4 -30 8 -35 3 -6 9 -27 13 -48 4 -20 11 -40 16 -42 4 -3 6 -11 3 -19 -3 -7 0
-26 7 -42 11 -30 21 -70 22 -91 0 -7 4 -13 9 -13 5 0 7 -4 4 -8 -3 -5 2 -31
10 -58 8 -27 16 -58 19 -69 6 -28 11 -49 33 -135 11 -41 18 -78 15 -82 -2 -5
1 -8 7 -8 6 0 10 -8 9 -17 -1 -10 6 -45 16 -78 11 -33 18 -64 17 -68 -2 -5 3
-7 9 -5 14 5 50 98 43 110 -3 4 -2 8 3 8 8 0 46 108 43 124 -1 5 3 12 10 16 6
4 13 13 14 21 8 40 19 69 26 69 5 0 7 11 6 24 -2 14 2 27 9 30 14 5 10 107 -5
116 -4 3 -7 12 -8 20 -1 16 -9 55 -12 55 -1 0 -3 8 -6 18 -2 9 -6 25 -8 35 -3
9 -5 17 -6 17 -1 0 -3 9 -5 20 -6 36 -10 50 -18 63 -5 6 -6 16 -2 21 3 5 0 13
-6 16 -5 4 -8 13 -5 21 3 8 2 14 -3 14 -4 0 -8 6 -8 13 0 6 -6 32 -13 57 -12
45 -17 64 -26 110 -3 13 -10 30 -16 37 -6 7 -8 20 -4 28 3 8 1 15 -5 15 -6 0
-7 5 -4 10 3 6 3 16 -2 23 -4 6 -9 21 -10 31 -2 11 -8 25 -14 33 -9 10 -8 13
1 13 10 0 10 3 0 15 -6 8 -14 27 -16 42 -9 54 -10 58 -15 68 -4 6 -14 43 -24
83 -11 39 -23 72 -28 72 -4 0 -5 4 -2 10 6 10 -20 123 -36 152 -5 10 -9 28 -9
40 0 32 -13 49 -38 51 -12 1 -22 5 -22 9 0 4 -9 8 -20 8 -11 0 -20 4 -20 8 0
5 -6 9 -13 9 -7 0 -50 14 -96 31 -91 35 -120 40 -102 19z"/>
<path d="M4906 4482 c-8 -16 -12 -32 -9 -36 4 -3 1 -6 -6 -6 -7 0 -10 -4 -6
-9 3 -5 1 -12 -5 -16 -5 -3 -10 -15 -10 -26 0 -11 -4 -18 -8 -15 -4 2 -8 -4
-9 -14 -1 -10 -11 -37 -22 -60 -11 -24 -18 -47 -15 -51 3 -5 0 -9 -7 -9 -7 0
-9 -3 -6 -6 4 -4 0 -19 -8 -33 -7 -14 -22 -48 -31 -76 -10 -27 -22 -56 -27
-62 -5 -7 -6 -13 -2 -13 4 0 2 -7 -5 -15 -7 -8 -9 -15 -5 -15 4 0 2 -7 -5 -15
-7 -8 -9 -15 -5 -15 4 0 0 -11 -9 -25 -9 -14 -14 -30 -11 -35 3 -5 1 -11 -5
-15 -6 -4 -8 -11 -5 -16 4 -5 2 -9 -2 -9 -13 0 -32 -78 -26 -109 2 -14 5 -34
6 -43 1 -10 5 -18 9 -18 4 0 5 -7 2 -15 -4 -8 -2 -15 3 -15 5 0 10 -11 11 -25
5 -57 7 -65 15 -65 4 0 7 -8 6 -17 -3 -22 11 -74 23 -90 5 -7 7 -17 3 -22 -3
-6 -1 -19 5 -30 5 -11 11 -31 12 -45 1 -15 5 -26 9 -26 4 0 6 -8 4 -17 -1 -10
2 -23 7 -29 5 -7 8 -16 7 -20 -2 -9 9 -59 18 -84 4 -8 7 -23 8 -32 2 -10 4
-19 5 -20 1 -2 4 -12 6 -23 13 -70 17 -85 23 -85 3 0 7 -10 8 -23 1 -12 4 -29
6 -37 2 -8 7 -32 12 -52 4 -21 11 -38 15 -38 4 0 6 -11 5 -25 -2 -14 -1 -25 1
-25 5 0 43 85 48 105 2 6 6 18 10 27 4 9 4 22 0 29 -4 7 -3 9 3 6 10 -6 29 37
25 56 -1 4 3 7 9 7 5 0 8 4 5 8 -2 4 4 27 14 50 11 23 16 42 13 42 -3 0 0 6 6
14 6 8 11 18 10 22 -1 5 3 23 10 39 7 17 14 38 16 48 2 9 7 22 10 27 3 5 8 18
10 27 2 10 10 37 19 61 8 23 13 42 10 42 -2 0 0 9 6 21 6 11 13 28 15 37 4 15
34 126 51 187 3 11 8 32 11 48 3 15 9 27 13 27 4 0 5 12 2 26 -3 16 -1 25 5
21 5 -3 10 4 11 16 2 28 9 81 12 87 1 3 2 8 1 13 0 4 3 7 7 7 4 0 8 8 9 18 1
20 11 87 13 87 4 0 33 150 34 180 1 11 4 25 8 30 6 10 11 55 9 89 -1 12 -6 16
-16 13 -8 -4 -17 -2 -20 3 -6 9 -106 45 -117 42 -5 -1 -8 3 -8 9 0 5 -4 7 -10
4 -5 -3 -10 -2 -10 3 0 5 -15 12 -32 16 -43 8 -49 10 -76 25 -13 7 -31 14 -40
16 -9 2 -27 7 -39 11 -17 5 -25 0 -37 -24z"/>
<path d="M1972 5213 c-17 -17 -33 -61 -39 -103 -3 -19 -9 -39 -13 -44 -5 -5
-5 -17 0 -27 7 -12 6 -20 0 -24 -6 -4 -8 -10 -5 -15 8 -12 -16 -70 -29 -70 -7
0 -17 5 -24 12 -7 7 -12 8 -12 2 0 -6 -7 -11 -15 -11 -8 0 -15 3 -15 7 0 3
-18 6 -40 6 -22 0 -40 -5 -40 -11 0 -6 -3 -7 -8 0 -7 10 -73 15 -67 5 2 -3
-17 -7 -41 -8 -25 -1 -64 -7 -87 -13 -44 -13 -71 -18 -99 -21 -9 -1 -14 -6
-12 -10 3 -4 0 -8 -7 -8 -20 0 -129 -52 -129 -62 0 -5 -4 -6 -10 -3 -5 3 -10
3 -10 -2 0 -4 -18 -19 -40 -32 -21 -14 -37 -28 -34 -33 3 -4 -4 -8 -16 -8 -12
0 -18 -4 -15 -10 3 -5 2 -10 -4 -10 -5 0 -23 -13 -39 -30 -17 -16 -28 -30 -25
-30 3 0 -5 -9 -18 -21 -13 -12 -23 -25 -22 -30 2 -5 -1 -9 -6 -9 -10 0 -66
-82 -63 -92 1 -5 -6 -8 -15 -8 -9 0 -14 -3 -10 -6 3 -4 -6 -30 -22 -58 -15
-28 -31 -63 -35 -78 -3 -16 -11 -28 -17 -28 -6 0 -7 -4 -4 -10 3 -5 2 -10 -3
-10 -6 0 -8 -9 -5 -20 3 -11 1 -20 -4 -20 -5 0 -9 -8 -10 -17 -1 -10 -4 -31
-8 -48 -4 -16 -8 -34 -9 -40 -1 -5 -4 -14 -7 -20 -2 -5 -4 -25 -4 -42 0 -18
-2 -33 -5 -33 -3 0 -5 -55 -4 -122 1 -68 3 -123 4 -123 1 0 3 -18 5 -40 1 -22
8 -53 15 -70 39 -94 54 -125 62 -125 5 0 7 -4 4 -8 -3 -5 4 -15 15 -22 10 -8
19 -20 19 -27 0 -7 4 -13 9 -13 5 0 16 -6 23 -12 28 -27 105 -60 156 -67 28
-4 52 -4 52 0 0 4 12 4 27 0 15 -4 46 -4 70 -1 23 4 46 3 52 -3 5 -5 11 -5 15
2 4 6 15 7 29 2 12 -5 31 -5 42 -1 11 4 29 4 40 0 11 -4 29 -4 40 0 11 4 29 4
40 0 11 -4 29 -4 40 0 11 4 29 4 41 0 11 -5 27 -5 34 0 7 4 25 6 39 3 14 -3
40 -7 56 -9 17 -2 36 -5 43 -6 6 -1 12 -5 12 -10 0 -5 4 -7 9 -4 26 16 101
-93 101 -146 0 -13 0 -30 0 -38 2 -24 -8 -123 -14 -149 -3 -14 -11 -28 -17
-31 -6 -4 -10 -11 -10 -16 1 -17 -10 -44 -20 -44 -5 0 -8 -3 -7 -7 1 -5 -8
-24 -20 -43 -12 -19 -22 -32 -22 -28 0 4 -13 -5 -29 -20 -15 -15 -26 -30 -24
-35 3 -4 1 -6 -4 -5 -4 1 -30 -12 -57 -30 -27 -17 -53 -29 -57 -26 -5 3 -9 1
-9 -5 0 -5 -10 -13 -22 -17 -13 -4 -23 -6 -23 -4 0 2 -9 -2 -21 -8 -25 -13
-74 -24 -169 -37 -57 -8 -56 -8 -105 -1 -85 11 -105 17 -155 43 -66 34 -86 48
-78 56 3 4 1 7 -6 7 -6 0 -33 21 -58 47 -43 42 -47 51 -49 97 -7 165 -32 236
-84 236 -12 0 -24 -9 -29 -22 -8 -22 -6 -386 3 -425 3 -13 0 -23 -5 -23 -6 0
-6 -8 1 -20 8 -15 8 -20 -2 -20 -9 0 -9 -3 -2 -8 10 -7 10 -57 -1 -182 -10
-105 -17 -352 -11 -376 8 -31 46 -32 66 -1 8 12 15 24 15 27 0 3 5 14 11 25 6
11 10 36 10 57 -1 20 2 34 5 32 3 -2 7 29 8 68 2 76 11 93 46 82 43 -14 309
-7 365 10 30 9 64 18 75 21 11 3 21 9 23 15 2 6 8 8 13 5 5 -3 19 0 31 7 13 7
26 11 31 10 4 -1 7 3 7 9 0 5 5 7 10 4 6 -3 10 -3 10 2 0 4 21 19 48 33 26 13
55 31 64 40 10 8 29 24 43 35 47 35 140 129 171 170 16 22 31 42 34 45 3 3 14
22 25 43 11 20 24 37 28 37 5 0 7 9 4 20 -3 13 0 20 9 20 12 0 19 19 15 43 0
4 3 7 9 7 6 0 9 3 8 8 0 4 1 14 4 22 32 86 39 112 35 123 -3 7 1 21 8 31 8 10
11 24 8 31 -2 8 -1 20 3 27 4 7 9 37 11 68 1 30 4 70 6 87 2 18 -2 35 -7 37
-8 3 -7 5 0 5 7 1 9 16 5 44 -4 23 -6 61 -6 85 0 23 -3 42 -7 42 -4 0 -6 8 -6
18 2 21 -21 92 -35 110 -5 7 -7 15 -4 19 4 3 -3 14 -14 24 -12 10 -18 22 -15
28 4 5 -3 12 -14 16 -11 3 -20 12 -20 18 0 7 -10 19 -21 27 -12 8 -27 20 -34
27 -7 7 -15 9 -19 6 -3 -4 -6 -1 -6 5 0 7 -3 11 -7 10 -5 -1 -21 5 -38 12 -35
15 -120 20 -152 9 -16 -6 -23 -5 -23 4 0 8 -3 8 -8 2 -4 -6 -38 -11 -77 -12
-75 -3 -157 -12 -164 -18 -2 -2 -12 0 -22 6 -11 5 -19 6 -19 2 0 -12 -70 -10
-70 2 0 5 -7 1 -15 -9 -8 -11 -15 -15 -15 -10 0 6 -10 10 -22 8 -13 -1 -23 -3
-23 -4 0 -1 -10 -3 -22 -4 -13 -2 -23 1 -23 6 0 5 -4 7 -8 4 -27 -16 -152 49
-152 79 0 7 -4 15 -10 17 -26 9 -33 187 -10 248 1 3 3 10 4 15 3 17 41 90 49
93 4 2 7 10 7 18 0 8 5 14 10 14 6 0 10 7 10 16 0 8 5 12 10 9 6 -3 10 -2 10
3 0 17 90 102 107 102 9 0 13 3 10 7 -7 7 48 45 71 49 8 1 21 9 30 17 10 8 23
12 30 10 6 -3 12 0 12 6 0 6 3 10 8 10 4 -1 9 0 12 1 38 14 109 23 185 22 96
-1 131 -6 150 -22 8 -7 15 -9 15 -4 0 4 5 3 11 -3 6 -6 18 -9 25 -6 9 3 14 -2
14 -13 0 -9 3 -14 7 -11 6 7 67 -27 91 -50 7 -7 17 -13 22 -13 5 0 7 -9 5 -20
-2 -11 2 -20 8 -20 7 0 6 -4 -3 -10 -8 -5 -10 -10 -5 -10 6 0 10 -21 9 -48 0
-26 4 -60 9 -77 5 -16 9 -35 10 -42 0 -6 11 -17 24 -24 19 -10 26 -10 41 4 22
20 22 20 27 327 4 239 9 365 15 365 1 0 4 53 6 118 2 75 0 117 -7 117 -6 0 -7
4 -4 10 9 14 -39 8 -53 -7z"/>
<path d="M2975 2089 c-4 -5 -14 -9 -23 -9 -9 0 -30 -7 -45 -15 -15 -8 -35 -11
-44 -8 -11 4 -14 3 -9 -5 4 -7 1 -13 -8 -13 -17 -2 -33 -5 -41 -9 -3 -1 -8 -3
-12 -5 -5 -1 -15 -4 -23 -8 -81 -31 -158 -57 -168 -57 -6 0 -12 -5 -12 -11 0
-5 -5 -7 -10 -4 -6 4 -17 1 -25 -5 -8 -6 -19 -9 -25 -5 -5 3 -10 1 -10 -6 0
-7 -3 -9 -6 -6 -4 3 -16 1 -28 -5 -11 -7 -24 -13 -28 -14 -5 -1 -11 -3 -15 -4
-5 -1 -12 -2 -16 -1 -4 1 -15 -6 -23 -14 -9 -8 -20 -13 -25 -10 -4 3 -22 -1
-39 -10 -16 -8 -30 -12 -30 -8 0 4 -5 2 -12 -5 -7 -7 -20 -12 -31 -12 -10 0
-16 -3 -14 -7 3 -5 -9 -9 -26 -10 -17 -1 -33 -7 -36 -11 -6 -10 -70 -27 -84
-24 -5 2 -6 -2 -2 -8 3 -5 -3 -11 -14 -11 -12 -1 -27 -2 -33 -3 -7 -1 -15 -3
-18 -6 -5 -6 -117 -49 -137 -54 -7 -1 -16 -5 -19 -9 -4 -4 -13 -7 -20 -7 -7 0
-25 -5 -41 -12 -15 -6 -34 -13 -40 -15 -13 -3 -18 -5 -60 -18 -13 -4 -23 -12
-23 -17 0 -5 -4 -7 -9 -4 -4 3 -36 -5 -70 -18 -33 -14 -61 -22 -61 -19 0 3 -7
0 -15 -7 -8 -6 -19 -9 -25 -5 -5 3 -10 1 -10 -4 0 -6 -4 -11 -9 -11 -5 0 -22
-5 -38 -12 -15 -6 -36 -13 -46 -15 -10 -1 -31 -10 -48 -18 -16 -9 -29 -13 -29
-9 0 4 -7 1 -15 -6 -8 -7 -15 -9 -15 -5 0 4 -6 2 -13 -4 -8 -6 -22 -12 -33
-14 -10 -1 -25 -6 -31 -10 -7 -5 -13 -5 -13 0 0 4 -4 3 -8 -2 -7 -11 -91 -40
-105 -37 -4 1 -7 -3 -7 -10 0 -6 -3 -9 -6 -5 -4 3 -19 0 -35 -9 -16 -8 -29
-12 -29 -8 0 4 -7 1 -15 -6 -8 -7 -15 -10 -15 -6 0 4 -11 -1 -25 -10 -14 -9
-32 -14 -40 -10 -8 3 -15 1 -15 -4 0 -6 -6 -10 -13 -10 -8 0 -28 -7 -46 -16
-17 -9 -38 -13 -46 -10 -8 3 -14 0 -12 -6 1 -6 -7 -12 -18 -13 -18 -2 -72 -21
-130 -45 -31 -14 -69 -24 -77 -22 -5 1 -8 -2 -8 -8 0 -6 -3 -9 -7 -9 -5 1 -11
0 -15 -1 -5 -1 -12 -4 -18 -5 -5 -1 -11 -3 -12 -5 -2 -1 -10 -3 -18 -5 -8 -2
-28 -9 -45 -16 -16 -7 -34 -14 -40 -15 -5 -1 -13 -3 -17 -4 -5 -1 -11 -3 -15
-5 -5 -1 -25 -9 -45 -19 -21 -9 -48 -17 -60 -19 -13 -1 -25 -5 -28 -8 -3 -3
-40 -18 -83 -34 -88 -32 -89 -43 -7 -65 28 -8 53 -18 56 -22 3 -4 16 -8 30 -8
13 0 24 -4 24 -10 0 -5 10 -10 23 -10 12 0 32 -7 43 -15 12 -8 24 -12 27 -8 4
3 12 1 19 -4 19 -15 105 -42 112 -35 3 3 6 0 6 -7 0 -8 7 -11 15 -7 8 3 15 2
15 -2 0 -6 39 -22 90 -37 21 -6 131 -45 155 -55 39 -16 60 -24 70 -25 6 -1 21
-6 35 -12 14 -6 68 -25 120 -43 52 -18 101 -37 107 -43 7 -5 13 -6 13 -3 0 4
9 2 21 -4 11 -6 30 -13 42 -16 12 -2 23 -8 25 -14 2 -6 8 -8 13 -4 5 3 15 2
21 -3 7 -4 18 -8 23 -9 6 -1 24 -8 40 -15 17 -7 41 -14 54 -15 13 -2 28 -9 32
-16 5 -7 9 -9 9 -4 0 6 5 5 11 -1 6 -6 18 -9 25 -6 8 3 14 0 14 -7 0 -6 5 -8
10 -5 6 3 10 1 10 -5 0 -7 7 -10 15 -6 8 3 15 1 15 -4 0 -6 9 -10 20 -10 12 0
34 -7 49 -15 16 -8 31 -11 35 -8 3 4 6 1 6 -5 0 -6 8 -10 18 -10 9 0 34 -7 55
-16 20 -9 37 -13 37 -9 0 5 4 3 8 -2 4 -6 25 -16 47 -23 36 -12 107 -38 160
-58 11 -4 22 -8 25 -9 3 -1 12 -4 20 -8 8 -3 44 -15 80 -28 124 -42 145 -50
165 -59 23 -10 69 -24 73 -21 1 1 16 -6 33 -15 17 -8 38 -17 47 -19 10 -2 31
-9 47 -16 17 -7 41 -14 55 -16 13 -2 27 -8 30 -12 3 -4 25 -13 50 -21 25 -7
50 -17 55 -21 6 -4 22 -9 35 -11 14 -2 35 -9 47 -16 12 -7 28 -12 35 -12 7 0
25 -6 39 -14 14 -7 39 -17 55 -21 16 -4 34 -9 39 -11 32 -9 81 -30 86 -38 4
-5 14 -6 23 -3 9 4 16 2 16 -3 0 -4 27 2 60 15 33 13 60 21 60 19 0 -3 10 1
23 8 12 7 25 12 29 13 3 0 10 3 14 8 4 4 16 7 26 7 10 0 18 4 18 9 0 5 8 8 18
7 9 -2 24 1 32 5 14 7 47 20 63 24 4 2 10 4 15 5 4 1 10 2 15 1 4 0 7 4 7 9 0
6 6 10 13 9 6 -1 19 0 27 4 8 3 62 23 120 44 58 20 107 41 108 45 2 5 7 6 12
3 5 -3 21 0 37 7 15 6 31 12 35 12 3 1 10 4 14 9 4 4 13 7 20 7 7 0 25 5 41
12 15 6 30 12 33 12 3 1 11 5 18 9 6 5 12 6 12 3 0 -3 26 6 57 19 31 14 62 24
69 21 7 -3 18 2 25 10 6 8 14 12 17 9 3 -3 11 0 19 6 7 6 13 9 13 6 0 -3 25 5
56 19 30 13 60 22 65 19 5 -4 9 -1 9 4 0 6 12 11 26 11 14 0 23 4 20 9 -4 5 2
8 11 7 10 -2 20 0 23 3 3 3 35 16 72 28 36 13 79 28 95 34 38 16 55 20 77 20
10 0 16 3 12 6 -3 3 43 23 102 43 59 21 119 43 135 49 15 6 27 8 27 5 0 -4 6
-1 13 5 8 6 17 8 20 4 4 -3 7 -2 7 4 0 6 12 13 28 16 15 3 41 11 57 18 17 7
33 12 38 11 4 -1 7 3 7 10 0 6 2 9 6 6 4 -5 63 14 144 45 48 19 168 59 184 63
10 2 25 9 34 16 8 7 17 12 19 11 1 -2 4 -3 6 -2 1 0 9 2 17 4 8 1 38 12 66 23
29 12 55 18 58 15 3 -4 6 -2 6 4 0 9 54 28 73 24 4 0 7 3 7 9 0 5 7 7 15 4 8
-4 15 -1 15 5 0 6 8 11 18 11 10 0 22 3 26 7 3 4 13 8 21 10 29 6 55 15 100
33 11 5 43 16 72 26 34 12 49 22 46 31 -3 7 -11 13 -18 13 -8 0 -26 5 -42 11
-15 6 -30 10 -33 11 -3 0 -9 3 -15 8 -5 4 -25 11 -42 15 -18 3 -33 10 -33 15
0 4 -9 6 -20 3 -12 -3 -20 0 -20 6 0 7 -4 9 -10 6 -5 -3 -10 -1 -10 6 0 7 -3
10 -6 6 -4 -3 -29 3 -57 13 -27 11 -55 16 -60 13 -6 -4 -7 -1 -3 6 5 8 3 11
-5 10 -8 -1 -31 6 -52 15 -21 9 -42 14 -47 11 -4 -3 -10 -1 -12 3 -1 5 -39 21
-83 36 -44 15 -89 31 -100 36 -27 11 -118 44 -127 46 -5 1 -10 3 -13 4 -3 1
-8 3 -12 5 -5 1 -17 5 -28 9 -11 4 -33 12 -50 18 -16 5 -39 14 -50 18 -27 11
-59 23 -65 25 -29 7 -146 49 -150 54 -3 3 -16 8 -30 10 -14 1 -28 8 -32 14 -4
6 -10 9 -13 5 -3 -3 -31 5 -62 18 -32 12 -61 20 -65 18 -4 -3 -8 0 -8 6 0 6
-4 9 -9 5 -5 -3 -12 -1 -15 4 -3 5 -17 12 -30 15 -14 3 -38 11 -53 18 -15 6
-39 13 -53 15 -13 2 -28 10 -32 16 -4 6 -10 8 -14 5 -4 -4 -16 -2 -28 4 -11 7
-24 11 -28 10 -5 -1 -8 3 -8 8 0 5 -3 9 -7 8 -8 -2 -81 20 -98 30 -5 3 -16 7
-25 8 -8 1 -39 11 -67 23 -29 11 -53 18 -53 13 0 -4 -4 -2 -8 3 -5 8 -89 42
-147 59 -5 2 -17 6 -25 9 -62 25 -128 47 -142 47 -10 0 -18 5 -18 11 0 6 -9 9
-20 6 -11 -3 -20 -2 -20 3 0 4 -34 18 -75 31 -41 12 -75 26 -75 29 0 4 -6 7
-12 8 -26 1 -57 11 -87 26 -17 9 -31 14 -31 11 0 -3 -15 2 -32 12 -30 15 -46
20 -85 25 -7 1 -13 4 -13 8 0 4 -6 7 -12 7 -7 1 -44 13 -82 27 -37 14 -72 24
-76 21 -5 -3 -10 -1 -12 5 -4 14 -46 21 -53 9z"/>
</g>
</svg>
